<?xml version="1.0" encoding="UTF-8" standalone="no"?>
<svg width="226.483mm" height="170.039mm"
 viewBox="0 0 642 482"
 xmlns="http://www.w3.org/2000/svg" xmlns:xlink="http://www.w3.org/1999/xlink"  version="1.2" baseProfile="tiny">
<title>Qt SVG Document</title>
<desc>Generated with Qt</desc>
<defs>
</defs>
<g fill="none" stroke="black" stroke-width="1" fill-rule="evenodd" stroke-linecap="square" stroke-linejoin="bevel" >

<g fill="none" stroke="#000000" stroke-opacity="1" stroke-width="1" stroke-linecap="square" stroke-linejoin="bevel" transform="matrix(1,0,0,1,0,0)"
font-family="Sans" font-size="10" font-weight="400" font-style="normal" 
>
</g>

<g fill="none" stroke="#000000" stroke-opacity="1" stroke-width="1" stroke-linecap="square" stroke-linejoin="bevel" transform="matrix(1.00313,0,0,1.00313,0,0)"
font-family="Sans" font-size="10" font-weight="400" font-style="normal" 
>
</g>

<g fill="none" stroke="#000000" stroke-opacity="1" stroke-width="1" stroke-linecap="round" stroke-linejoin="round" transform="matrix(1.00313,0,0,1.00313,0,0)"
font-family="Sans" font-size="10" font-weight="400" font-style="normal" 
>
<polyline fill="none" vector-effect="none" points="82.1,354.4 273.8,267.2 " />
<polyline fill="none" vector-effect="none" points="557.9,326 273.8,267.2 " />
<polyline fill="none" vector-effect="none" points="82.5,354.5 82.5,139.5 " />
<polyline fill="none" vector-effect="none" points="557.9,326 550.8,324.6 " />
<polyline fill="none" vector-effect="none" points="273.8,267.2 280.9,268.7 " />
</g>

<g fill="none" stroke="#000000" stroke-opacity="1" stroke-width="1" stroke-linecap="square" stroke-linejoin="bevel" transform="matrix(1.00313,0,0,1.00313,0,0)"
font-family="Sans" font-size="10" font-weight="400" font-style="normal" 
>
</g>

<g fill="none" stroke="#000000" stroke-opacity="1" stroke-width="1" stroke-linecap="square" stroke-linejoin="bevel" transform="matrix(1.00313,0,0,1.00313,567.769,335.545)"
font-family="Sans" font-size="10" font-weight="400" font-style="normal" 
>
</g>

<g fill="none" stroke="#000000" stroke-opacity="1" stroke-width="1" stroke-linecap="square" stroke-linejoin="bevel" transform="matrix(1.00313,0,0,1.00313,567.769,335.545)"
font-family="Sans" font-size="10" font-weight="400" font-style="normal" 
>
</g>

<g fill="none" stroke="#000000" stroke-opacity="1" stroke-width="1" stroke-linecap="square" stroke-linejoin="bevel" transform="matrix(1.00313,0,0,1.00313,567.769,335.545)"
font-family="Sans" font-size="10" font-weight="400" font-style="normal" 
>
</g>

<g fill="none" stroke="#000000" stroke-opacity="1" stroke-width="1" stroke-linecap="square" stroke-linejoin="bevel" transform="matrix(1.00313,0,0,1.00313,567.769,335.545)"
font-family="Sans" font-size="10" font-weight="400" font-style="normal" 
>
</g>

<g fill="none" stroke="#000000" stroke-opacity="1" stroke-width="1" stroke-linecap="square" stroke-linejoin="bevel" transform="matrix(1.00313,0,0,1.00313,567.769,335.545)"
font-family="Sans" font-size="10" font-weight="400" font-style="normal" 
>
</g>

<g fill="none" stroke="#000000" stroke-opacity="1" stroke-width="1" stroke-linecap="square" stroke-linejoin="bevel" transform="matrix(1.00313,0,0,1.00313,567.769,335.545)"
font-family="Sans" font-size="9" font-weight="400" font-style="normal" 
>
<text fill="#000000" fill-opacity="1" stroke="none" xml:space="preserve" x="0" y="0" font-family="Sans" font-size="9" font-weight="400" font-style="normal" 
 > 0</text>
</g>

<g fill="none" stroke="#000000" stroke-opacity="1" stroke-width="1" stroke-linecap="square" stroke-linejoin="bevel" transform="matrix(1.00313,0,0,1.00313,567.769,335.545)"
font-family="Sans" font-size="10" font-weight="400" font-style="normal" 
>
</g>

<g fill="none" stroke="#000000" stroke-opacity="1" stroke-width="1" stroke-linecap="square" stroke-linejoin="bevel" transform="matrix(1.00313,0,0,1.00313,0,0)"
font-family="Sans" font-size="10" font-weight="400" font-style="normal" 
>
</g>

<g fill="none" stroke="#000000" stroke-opacity="1" stroke-width="1" stroke-linecap="round" stroke-linejoin="round" transform="matrix(1.00313,0,0,1.00313,0,0)"
font-family="Sans" font-size="10" font-weight="400" font-style="normal" 
>
<polyline fill="none" vector-effect="none" points="519.6,343.5 512.4,342 " />
<polyline fill="none" vector-effect="none" points="235.5,284.7 242.6,286.1 " />
</g>

<g fill="none" stroke="#000000" stroke-opacity="1" stroke-width="1" stroke-linecap="square" stroke-linejoin="bevel" transform="matrix(1.00313,0,0,1.00313,0,0)"
font-family="Sans" font-size="10" font-weight="400" font-style="normal" 
>
</g>

<g fill="none" stroke="#000000" stroke-opacity="1" stroke-width="1" stroke-linecap="square" stroke-linejoin="bevel" transform="matrix(1.00313,0,0,1.00313,529.65,352.598)"
font-family="Sans" font-size="10" font-weight="400" font-style="normal" 
>
</g>

<g fill="none" stroke="#000000" stroke-opacity="1" stroke-width="1" stroke-linecap="square" stroke-linejoin="bevel" transform="matrix(1.00313,0,0,1.00313,529.65,352.598)"
font-family="Sans" font-size="10" font-weight="400" font-style="normal" 
>
</g>

<g fill="none" stroke="#000000" stroke-opacity="1" stroke-width="1" stroke-linecap="square" stroke-linejoin="bevel" transform="matrix(1.00313,0,0,1.00313,529.65,352.598)"
font-family="Sans" font-size="10" font-weight="400" font-style="normal" 
>
</g>

<g fill="none" stroke="#000000" stroke-opacity="1" stroke-width="1" stroke-linecap="square" stroke-linejoin="bevel" transform="matrix(1.00313,0,0,1.00313,529.65,352.598)"
font-family="Sans" font-size="10" font-weight="400" font-style="normal" 
>
</g>

<g fill="none" stroke="#000000" stroke-opacity="1" stroke-width="1" stroke-linecap="square" stroke-linejoin="bevel" transform="matrix(1.00313,0,0,1.00313,529.65,352.598)"
font-family="Sans" font-size="10" font-weight="400" font-style="normal" 
>
</g>

<g fill="none" stroke="#000000" stroke-opacity="1" stroke-width="1" stroke-linecap="square" stroke-linejoin="bevel" transform="matrix(1.00313,0,0,1.00313,529.65,352.598)"
font-family="Sans" font-size="9" font-weight="400" font-style="normal" 
>
<text fill="#000000" fill-opacity="1" stroke="none" xml:space="preserve" x="0" y="0" font-family="Sans" font-size="9" font-weight="400" font-style="normal" 
 > 2000</text>
</g>

<g fill="none" stroke="#000000" stroke-opacity="1" stroke-width="1" stroke-linecap="square" stroke-linejoin="bevel" transform="matrix(1.00313,0,0,1.00313,529.65,352.598)"
font-family="Sans" font-size="10" font-weight="400" font-style="normal" 
>
</g>

<g fill="none" stroke="#000000" stroke-opacity="1" stroke-width="1" stroke-linecap="square" stroke-linejoin="bevel" transform="matrix(1.00313,0,0,1.00313,0,0)"
font-family="Sans" font-size="10" font-weight="400" font-style="normal" 
>
</g>

<g fill="none" stroke="#000000" stroke-opacity="1" stroke-width="1" stroke-linecap="round" stroke-linejoin="round" transform="matrix(1.00313,0,0,1.00313,0,0)"
font-family="Sans" font-size="10" font-weight="400" font-style="normal" 
>
<polyline fill="none" vector-effect="none" points="481.2,360.9 474.1,359.4 " />
<polyline fill="none" vector-effect="none" points="197.1,302.1 204.2,303.6 " />
</g>

<g fill="none" stroke="#000000" stroke-opacity="1" stroke-width="1" stroke-linecap="square" stroke-linejoin="bevel" transform="matrix(1.00313,0,0,1.00313,0,0)"
font-family="Sans" font-size="10" font-weight="400" font-style="normal" 
>
</g>

<g fill="none" stroke="#000000" stroke-opacity="1" stroke-width="1" stroke-linecap="square" stroke-linejoin="bevel" transform="matrix(1.00313,0,0,1.00313,491.531,370.655)"
font-family="Sans" font-size="10" font-weight="400" font-style="normal" 
>
</g>

<g fill="none" stroke="#000000" stroke-opacity="1" stroke-width="1" stroke-linecap="square" stroke-linejoin="bevel" transform="matrix(1.00313,0,0,1.00313,491.531,370.655)"
font-family="Sans" font-size="10" font-weight="400" font-style="normal" 
>
</g>

<g fill="none" stroke="#000000" stroke-opacity="1" stroke-width="1" stroke-linecap="square" stroke-linejoin="bevel" transform="matrix(1.00313,0,0,1.00313,491.531,370.655)"
font-family="Sans" font-size="10" font-weight="400" font-style="normal" 
>
</g>

<g fill="none" stroke="#000000" stroke-opacity="1" stroke-width="1" stroke-linecap="square" stroke-linejoin="bevel" transform="matrix(1.00313,0,0,1.00313,491.531,370.655)"
font-family="Sans" font-size="10" font-weight="400" font-style="normal" 
>
</g>

<g fill="none" stroke="#000000" stroke-opacity="1" stroke-width="1" stroke-linecap="square" stroke-linejoin="bevel" transform="matrix(1.00313,0,0,1.00313,491.531,370.655)"
font-family="Sans" font-size="10" font-weight="400" font-style="normal" 
>
</g>

<g fill="none" stroke="#000000" stroke-opacity="1" stroke-width="1" stroke-linecap="square" stroke-linejoin="bevel" transform="matrix(1.00313,0,0,1.00313,491.531,370.655)"
font-family="Sans" font-size="9" font-weight="400" font-style="normal" 
>
<text fill="#000000" fill-opacity="1" stroke="none" xml:space="preserve" x="0" y="0" font-family="Sans" font-size="9" font-weight="400" font-style="normal" 
 > 4000</text>
</g>

<g fill="none" stroke="#000000" stroke-opacity="1" stroke-width="1" stroke-linecap="square" stroke-linejoin="bevel" transform="matrix(1.00313,0,0,1.00313,491.531,370.655)"
font-family="Sans" font-size="10" font-weight="400" font-style="normal" 
>
</g>

<g fill="none" stroke="#000000" stroke-opacity="1" stroke-width="1" stroke-linecap="square" stroke-linejoin="bevel" transform="matrix(1.00313,0,0,1.00313,0,0)"
font-family="Sans" font-size="10" font-weight="400" font-style="normal" 
>
</g>

<g fill="none" stroke="#000000" stroke-opacity="1" stroke-width="1" stroke-linecap="round" stroke-linejoin="round" transform="matrix(1.00313,0,0,1.00313,0,0)"
font-family="Sans" font-size="10" font-weight="400" font-style="normal" 
>
<polyline fill="none" vector-effect="none" points="442.9,378.3 435.8,376.9 " />
<polyline fill="none" vector-effect="none" points="158.8,319.5 165.9,321 " />
</g>

<g fill="none" stroke="#000000" stroke-opacity="1" stroke-width="1" stroke-linecap="square" stroke-linejoin="bevel" transform="matrix(1.00313,0,0,1.00313,0,0)"
font-family="Sans" font-size="10" font-weight="400" font-style="normal" 
>
</g>

<g fill="none" stroke="#000000" stroke-opacity="1" stroke-width="1" stroke-linecap="square" stroke-linejoin="bevel" transform="matrix(1.00313,0,0,1.00313,452.409,387.708)"
font-family="Sans" font-size="10" font-weight="400" font-style="normal" 
>
</g>

<g fill="none" stroke="#000000" stroke-opacity="1" stroke-width="1" stroke-linecap="square" stroke-linejoin="bevel" transform="matrix(1.00313,0,0,1.00313,452.409,387.708)"
font-family="Sans" font-size="10" font-weight="400" font-style="normal" 
>
</g>

<g fill="none" stroke="#000000" stroke-opacity="1" stroke-width="1" stroke-linecap="square" stroke-linejoin="bevel" transform="matrix(1.00313,0,0,1.00313,452.409,387.708)"
font-family="Sans" font-size="10" font-weight="400" font-style="normal" 
>
</g>

<g fill="none" stroke="#000000" stroke-opacity="1" stroke-width="1" stroke-linecap="square" stroke-linejoin="bevel" transform="matrix(1.00313,0,0,1.00313,452.409,387.708)"
font-family="Sans" font-size="10" font-weight="400" font-style="normal" 
>
</g>

<g fill="none" stroke="#000000" stroke-opacity="1" stroke-width="1" stroke-linecap="square" stroke-linejoin="bevel" transform="matrix(1.00313,0,0,1.00313,452.409,387.708)"
font-family="Sans" font-size="10" font-weight="400" font-style="normal" 
>
</g>

<g fill="none" stroke="#000000" stroke-opacity="1" stroke-width="1" stroke-linecap="square" stroke-linejoin="bevel" transform="matrix(1.00313,0,0,1.00313,452.409,387.708)"
font-family="Sans" font-size="9" font-weight="400" font-style="normal" 
>
<text fill="#000000" fill-opacity="1" stroke="none" xml:space="preserve" x="0" y="0" font-family="Sans" font-size="9" font-weight="400" font-style="normal" 
 > 6000</text>
</g>

<g fill="none" stroke="#000000" stroke-opacity="1" stroke-width="1" stroke-linecap="square" stroke-linejoin="bevel" transform="matrix(1.00313,0,0,1.00313,452.409,387.708)"
font-family="Sans" font-size="10" font-weight="400" font-style="normal" 
>
</g>

<g fill="none" stroke="#000000" stroke-opacity="1" stroke-width="1" stroke-linecap="square" stroke-linejoin="bevel" transform="matrix(1.00313,0,0,1.00313,0,0)"
font-family="Sans" font-size="10" font-weight="400" font-style="normal" 
>
</g>

<g fill="none" stroke="#000000" stroke-opacity="1" stroke-width="1" stroke-linecap="round" stroke-linejoin="round" transform="matrix(1.00313,0,0,1.00313,0,0)"
font-family="Sans" font-size="10" font-weight="400" font-style="normal" 
>
<polyline fill="none" vector-effect="none" points="404.5,395.8 397.4,394.3 " />
<polyline fill="none" vector-effect="none" points="120.4,337 127.6,338.4 " />
</g>

<g fill="none" stroke="#000000" stroke-opacity="1" stroke-width="1" stroke-linecap="square" stroke-linejoin="bevel" transform="matrix(1.00313,0,0,1.00313,0,0)"
font-family="Sans" font-size="10" font-weight="400" font-style="normal" 
>
</g>

<g fill="none" stroke="#000000" stroke-opacity="1" stroke-width="1" stroke-linecap="square" stroke-linejoin="bevel" transform="matrix(1.00313,0,0,1.00313,414.291,404.761)"
font-family="Sans" font-size="10" font-weight="400" font-style="normal" 
>
</g>

<g fill="none" stroke="#000000" stroke-opacity="1" stroke-width="1" stroke-linecap="square" stroke-linejoin="bevel" transform="matrix(1.00313,0,0,1.00313,414.291,404.761)"
font-family="Sans" font-size="10" font-weight="400" font-style="normal" 
>
</g>

<g fill="none" stroke="#000000" stroke-opacity="1" stroke-width="1" stroke-linecap="square" stroke-linejoin="bevel" transform="matrix(1.00313,0,0,1.00313,414.291,404.761)"
font-family="Sans" font-size="10" font-weight="400" font-style="normal" 
>
</g>

<g fill="none" stroke="#000000" stroke-opacity="1" stroke-width="1" stroke-linecap="square" stroke-linejoin="bevel" transform="matrix(1.00313,0,0,1.00313,414.291,404.761)"
font-family="Sans" font-size="10" font-weight="400" font-style="normal" 
>
</g>

<g fill="none" stroke="#000000" stroke-opacity="1" stroke-width="1" stroke-linecap="square" stroke-linejoin="bevel" transform="matrix(1.00313,0,0,1.00313,414.291,404.761)"
font-family="Sans" font-size="10" font-weight="400" font-style="normal" 
>
</g>

<g fill="none" stroke="#000000" stroke-opacity="1" stroke-width="1" stroke-linecap="square" stroke-linejoin="bevel" transform="matrix(1.00313,0,0,1.00313,414.291,404.761)"
font-family="Sans" font-size="9" font-weight="400" font-style="normal" 
>
<text fill="#000000" fill-opacity="1" stroke="none" xml:space="preserve" x="0" y="0" font-family="Sans" font-size="9" font-weight="400" font-style="normal" 
 > 8000</text>
</g>

<g fill="none" stroke="#000000" stroke-opacity="1" stroke-width="1" stroke-linecap="square" stroke-linejoin="bevel" transform="matrix(1.00313,0,0,1.00313,414.291,404.761)"
font-family="Sans" font-size="10" font-weight="400" font-style="normal" 
>
</g>

<g fill="none" stroke="#000000" stroke-opacity="1" stroke-width="1" stroke-linecap="square" stroke-linejoin="bevel" transform="matrix(1.00313,0,0,1.00313,0,0)"
font-family="Sans" font-size="10" font-weight="400" font-style="normal" 
>
</g>

<g fill="none" stroke="#000000" stroke-opacity="1" stroke-width="1" stroke-linecap="round" stroke-linejoin="round" transform="matrix(1.00313,0,0,1.00313,0,0)"
font-family="Sans" font-size="10" font-weight="400" font-style="normal" 
>
<polyline fill="none" vector-effect="none" points="366.2,413.2 359.1,411.7 " />
<polyline fill="none" vector-effect="none" points="82.1,354.4 89.2,355.9 " />
</g>

<g fill="none" stroke="#000000" stroke-opacity="1" stroke-width="1" stroke-linecap="square" stroke-linejoin="bevel" transform="matrix(1.00313,0,0,1.00313,0,0)"
font-family="Sans" font-size="10" font-weight="400" font-style="normal" 
>
</g>

<g fill="none" stroke="#000000" stroke-opacity="1" stroke-width="1" stroke-linecap="square" stroke-linejoin="bevel" transform="matrix(1.00313,0,0,1.00313,376.172,422.817)"
font-family="Sans" font-size="10" font-weight="400" font-style="normal" 
>
</g>

<g fill="none" stroke="#000000" stroke-opacity="1" stroke-width="1" stroke-linecap="square" stroke-linejoin="bevel" transform="matrix(1.00313,0,0,1.00313,376.172,422.817)"
font-family="Sans" font-size="10" font-weight="400" font-style="normal" 
>
</g>

<g fill="none" stroke="#000000" stroke-opacity="1" stroke-width="1" stroke-linecap="square" stroke-linejoin="bevel" transform="matrix(1.00313,0,0,1.00313,376.172,422.817)"
font-family="Sans" font-size="10" font-weight="400" font-style="normal" 
>
</g>

<g fill="none" stroke="#000000" stroke-opacity="1" stroke-width="1" stroke-linecap="square" stroke-linejoin="bevel" transform="matrix(1.00313,0,0,1.00313,376.172,422.817)"
font-family="Sans" font-size="10" font-weight="400" font-style="normal" 
>
</g>

<g fill="none" stroke="#000000" stroke-opacity="1" stroke-width="1" stroke-linecap="square" stroke-linejoin="bevel" transform="matrix(1.00313,0,0,1.00313,376.172,422.817)"
font-family="Sans" font-size="10" font-weight="400" font-style="normal" 
>
</g>

<g fill="none" stroke="#000000" stroke-opacity="1" stroke-width="1" stroke-linecap="square" stroke-linejoin="bevel" transform="matrix(1.00313,0,0,1.00313,376.172,422.817)"
font-family="Sans" font-size="9" font-weight="400" font-style="normal" 
>
<text fill="#000000" fill-opacity="1" stroke="none" xml:space="preserve" x="0" y="0" font-family="Sans" font-size="9" font-weight="400" font-style="normal" 
 > 10000</text>
</g>

<g fill="none" stroke="#000000" stroke-opacity="1" stroke-width="1" stroke-linecap="square" stroke-linejoin="bevel" transform="matrix(1.00313,0,0,1.00313,376.172,422.817)"
font-family="Sans" font-size="10" font-weight="400" font-style="normal" 
>
</g>

<g fill="none" stroke="#000000" stroke-opacity="1" stroke-width="1" stroke-linecap="square" stroke-linejoin="bevel" transform="matrix(1.00313,0,0,1.00313,0,0)"
font-family="Sans" font-size="10" font-weight="400" font-style="normal" 
>
</g>

<g fill="none" stroke="#000000" stroke-opacity="1" stroke-width="1" stroke-linecap="round" stroke-linejoin="round" transform="matrix(1.00313,0,0,1.00313,0,0)"
font-family="Sans" font-size="10" font-weight="400" font-style="normal" 
>
<polyline fill="none" vector-effect="none" points="110.5,360.3 113.9,358.8 " />
<polyline fill="none" vector-effect="none" points="302.2,273.1 298.9,274.7 " />
</g>

<g fill="none" stroke="#000000" stroke-opacity="1" stroke-width="1" stroke-linecap="square" stroke-linejoin="bevel" transform="matrix(1.00313,0,0,1.00313,0,0)"
font-family="Sans" font-size="10" font-weight="400" font-style="normal" 
>
</g>

<g fill="none" stroke="#000000" stroke-opacity="1" stroke-width="1" stroke-linecap="square" stroke-linejoin="bevel" transform="matrix(1.00313,0,0,1.00313,89.7797,369.652)"
font-family="Sans" font-size="10" font-weight="400" font-style="normal" 
>
</g>

<g fill="none" stroke="#000000" stroke-opacity="1" stroke-width="1" stroke-linecap="square" stroke-linejoin="bevel" transform="matrix(1.00313,0,0,1.00313,89.7797,369.652)"
font-family="Sans" font-size="10" font-weight="400" font-style="normal" 
>
</g>

<g fill="none" stroke="#000000" stroke-opacity="1" stroke-width="1" stroke-linecap="square" stroke-linejoin="bevel" transform="matrix(1.00313,0,0,1.00313,89.7797,369.652)"
font-family="Sans" font-size="10" font-weight="400" font-style="normal" 
>
</g>

<g fill="none" stroke="#000000" stroke-opacity="1" stroke-width="1" stroke-linecap="square" stroke-linejoin="bevel" transform="matrix(1.00313,0,0,1.00313,89.7797,369.652)"
font-family="Sans" font-size="10" font-weight="400" font-style="normal" 
>
</g>

<g fill="none" stroke="#000000" stroke-opacity="1" stroke-width="1" stroke-linecap="square" stroke-linejoin="bevel" transform="matrix(1.00313,0,0,1.00313,89.7797,369.652)"
font-family="Sans" font-size="10" font-weight="400" font-style="normal" 
>
</g>

<g fill="none" stroke="#000000" stroke-opacity="1" stroke-width="1" stroke-linecap="square" stroke-linejoin="bevel" transform="matrix(1.00313,0,0,1.00313,89.7797,369.652)"
font-family="Sans" font-size="9" font-weight="400" font-style="normal" 
>
<text fill="#000000" fill-opacity="1" stroke="none" xml:space="preserve" x="0" y="0" font-family="Sans" font-size="9" font-weight="400" font-style="normal" 
 >-4000</text>
</g>

<g fill="none" stroke="#000000" stroke-opacity="1" stroke-width="1" stroke-linecap="square" stroke-linejoin="bevel" transform="matrix(1.00313,0,0,1.00313,89.7797,369.652)"
font-family="Sans" font-size="10" font-weight="400" font-style="normal" 
>
</g>

<g fill="none" stroke="#000000" stroke-opacity="1" stroke-width="1" stroke-linecap="square" stroke-linejoin="bevel" transform="matrix(1.00313,0,0,1.00313,0,0)"
font-family="Sans" font-size="10" font-weight="400" font-style="normal" 
>
</g>

<g fill="none" stroke="#000000" stroke-opacity="1" stroke-width="1" stroke-linecap="round" stroke-linejoin="round" transform="matrix(1.00313,0,0,1.00313,0,0)"
font-family="Sans" font-size="10" font-weight="400" font-style="normal" 
>
<polyline fill="none" vector-effect="none" points="167.4,372 170.7,370.5 " />
<polyline fill="none" vector-effect="none" points="359,284.9 355.6,286.4 " />
</g>

<g fill="none" stroke="#000000" stroke-opacity="1" stroke-width="1" stroke-linecap="square" stroke-linejoin="bevel" transform="matrix(1.00313,0,0,1.00313,0,0)"
font-family="Sans" font-size="10" font-weight="400" font-style="normal" 
>
</g>

<g fill="none" stroke="#000000" stroke-opacity="1" stroke-width="1" stroke-linecap="square" stroke-linejoin="bevel" transform="matrix(1.00313,0,0,1.00313,146.958,381.689)"
font-family="Sans" font-size="10" font-weight="400" font-style="normal" 
>
</g>

<g fill="none" stroke="#000000" stroke-opacity="1" stroke-width="1" stroke-linecap="square" stroke-linejoin="bevel" transform="matrix(1.00313,0,0,1.00313,146.958,381.689)"
font-family="Sans" font-size="10" font-weight="400" font-style="normal" 
>
</g>

<g fill="none" stroke="#000000" stroke-opacity="1" stroke-width="1" stroke-linecap="square" stroke-linejoin="bevel" transform="matrix(1.00313,0,0,1.00313,146.958,381.689)"
font-family="Sans" font-size="10" font-weight="400" font-style="normal" 
>
</g>

<g fill="none" stroke="#000000" stroke-opacity="1" stroke-width="1" stroke-linecap="square" stroke-linejoin="bevel" transform="matrix(1.00313,0,0,1.00313,146.958,381.689)"
font-family="Sans" font-size="10" font-weight="400" font-style="normal" 
>
</g>

<g fill="none" stroke="#000000" stroke-opacity="1" stroke-width="1" stroke-linecap="square" stroke-linejoin="bevel" transform="matrix(1.00313,0,0,1.00313,146.958,381.689)"
font-family="Sans" font-size="10" font-weight="400" font-style="normal" 
>
</g>

<g fill="none" stroke="#000000" stroke-opacity="1" stroke-width="1" stroke-linecap="square" stroke-linejoin="bevel" transform="matrix(1.00313,0,0,1.00313,146.958,381.689)"
font-family="Sans" font-size="9" font-weight="400" font-style="normal" 
>
<text fill="#000000" fill-opacity="1" stroke="none" xml:space="preserve" x="0" y="0" font-family="Sans" font-size="9" font-weight="400" font-style="normal" 
 >-2000</text>
</g>

<g fill="none" stroke="#000000" stroke-opacity="1" stroke-width="1" stroke-linecap="square" stroke-linejoin="bevel" transform="matrix(1.00313,0,0,1.00313,146.958,381.689)"
font-family="Sans" font-size="10" font-weight="400" font-style="normal" 
>
</g>

<g fill="none" stroke="#000000" stroke-opacity="1" stroke-width="1" stroke-linecap="square" stroke-linejoin="bevel" transform="matrix(1.00313,0,0,1.00313,0,0)"
font-family="Sans" font-size="10" font-weight="400" font-style="normal" 
>
</g>

<g fill="none" stroke="#000000" stroke-opacity="1" stroke-width="1" stroke-linecap="round" stroke-linejoin="round" transform="matrix(1.00313,0,0,1.00313,0,0)"
font-family="Sans" font-size="10" font-weight="400" font-style="normal" 
>
<polyline fill="none" vector-effect="none" points="224.2,383.8 227.6,382.3 " />
<polyline fill="none" vector-effect="none" points="415.8,296.6 412.4,298.2 " />
</g>

<g fill="none" stroke="#000000" stroke-opacity="1" stroke-width="1" stroke-linecap="square" stroke-linejoin="bevel" transform="matrix(1.00313,0,0,1.00313,0,0)"
font-family="Sans" font-size="10" font-weight="400" font-style="normal" 
>
</g>

<g fill="none" stroke="#000000" stroke-opacity="1" stroke-width="1" stroke-linecap="square" stroke-linejoin="bevel" transform="matrix(1.00313,0,0,1.00313,215.17,393.727)"
font-family="Sans" font-size="10" font-weight="400" font-style="normal" 
>
</g>

<g fill="none" stroke="#000000" stroke-opacity="1" stroke-width="1" stroke-linecap="square" stroke-linejoin="bevel" transform="matrix(1.00313,0,0,1.00313,215.17,393.727)"
font-family="Sans" font-size="10" font-weight="400" font-style="normal" 
>
</g>

<g fill="none" stroke="#000000" stroke-opacity="1" stroke-width="1" stroke-linecap="square" stroke-linejoin="bevel" transform="matrix(1.00313,0,0,1.00313,215.17,393.727)"
font-family="Sans" font-size="10" font-weight="400" font-style="normal" 
>
</g>

<g fill="none" stroke="#000000" stroke-opacity="1" stroke-width="1" stroke-linecap="square" stroke-linejoin="bevel" transform="matrix(1.00313,0,0,1.00313,215.17,393.727)"
font-family="Sans" font-size="10" font-weight="400" font-style="normal" 
>
</g>

<g fill="none" stroke="#000000" stroke-opacity="1" stroke-width="1" stroke-linecap="square" stroke-linejoin="bevel" transform="matrix(1.00313,0,0,1.00313,215.17,393.727)"
font-family="Sans" font-size="10" font-weight="400" font-style="normal" 
>
</g>

<g fill="none" stroke="#000000" stroke-opacity="1" stroke-width="1" stroke-linecap="square" stroke-linejoin="bevel" transform="matrix(1.00313,0,0,1.00313,215.17,393.727)"
font-family="Sans" font-size="9" font-weight="400" font-style="normal" 
>
<text fill="#000000" fill-opacity="1" stroke="none" xml:space="preserve" x="0" y="0" font-family="Sans" font-size="9" font-weight="400" font-style="normal" 
 > 0</text>
</g>

<g fill="none" stroke="#000000" stroke-opacity="1" stroke-width="1" stroke-linecap="square" stroke-linejoin="bevel" transform="matrix(1.00313,0,0,1.00313,215.17,393.727)"
font-family="Sans" font-size="10" font-weight="400" font-style="normal" 
>
</g>

<g fill="none" stroke="#000000" stroke-opacity="1" stroke-width="1" stroke-linecap="square" stroke-linejoin="bevel" transform="matrix(1.00313,0,0,1.00313,0,0)"
font-family="Sans" font-size="10" font-weight="400" font-style="normal" 
>
</g>

<g fill="none" stroke="#000000" stroke-opacity="1" stroke-width="1" stroke-linecap="round" stroke-linejoin="round" transform="matrix(1.00313,0,0,1.00313,0,0)"
font-family="Sans" font-size="10" font-weight="400" font-style="normal" 
>
<polyline fill="none" vector-effect="none" points="281,395.5 284.4,394 " />
<polyline fill="none" vector-effect="none" points="472.6,308.4 469.3,309.9 " />
</g>

<g fill="none" stroke="#000000" stroke-opacity="1" stroke-width="1" stroke-linecap="square" stroke-linejoin="bevel" transform="matrix(1.00313,0,0,1.00313,0,0)"
font-family="Sans" font-size="10" font-weight="400" font-style="normal" 
>
</g>

<g fill="none" stroke="#000000" stroke-opacity="1" stroke-width="1" stroke-linecap="square" stroke-linejoin="bevel" transform="matrix(1.00313,0,0,1.00313,260.311,404.761)"
font-family="Sans" font-size="10" font-weight="400" font-style="normal" 
>
</g>

<g fill="none" stroke="#000000" stroke-opacity="1" stroke-width="1" stroke-linecap="square" stroke-linejoin="bevel" transform="matrix(1.00313,0,0,1.00313,260.311,404.761)"
font-family="Sans" font-size="10" font-weight="400" font-style="normal" 
>
</g>

<g fill="none" stroke="#000000" stroke-opacity="1" stroke-width="1" stroke-linecap="square" stroke-linejoin="bevel" transform="matrix(1.00313,0,0,1.00313,260.311,404.761)"
font-family="Sans" font-size="10" font-weight="400" font-style="normal" 
>
</g>

<g fill="none" stroke="#000000" stroke-opacity="1" stroke-width="1" stroke-linecap="square" stroke-linejoin="bevel" transform="matrix(1.00313,0,0,1.00313,260.311,404.761)"
font-family="Sans" font-size="10" font-weight="400" font-style="normal" 
>
</g>

<g fill="none" stroke="#000000" stroke-opacity="1" stroke-width="1" stroke-linecap="square" stroke-linejoin="bevel" transform="matrix(1.00313,0,0,1.00313,260.311,404.761)"
font-family="Sans" font-size="10" font-weight="400" font-style="normal" 
>
</g>

<g fill="none" stroke="#000000" stroke-opacity="1" stroke-width="1" stroke-linecap="square" stroke-linejoin="bevel" transform="matrix(1.00313,0,0,1.00313,260.311,404.761)"
font-family="Sans" font-size="9" font-weight="400" font-style="normal" 
>
<text fill="#000000" fill-opacity="1" stroke="none" xml:space="preserve" x="0" y="0" font-family="Sans" font-size="9" font-weight="400" font-style="normal" 
 > 2000</text>
</g>

<g fill="none" stroke="#000000" stroke-opacity="1" stroke-width="1" stroke-linecap="square" stroke-linejoin="bevel" transform="matrix(1.00313,0,0,1.00313,260.311,404.761)"
font-family="Sans" font-size="10" font-weight="400" font-style="normal" 
>
</g>

<g fill="none" stroke="#000000" stroke-opacity="1" stroke-width="1" stroke-linecap="square" stroke-linejoin="bevel" transform="matrix(1.00313,0,0,1.00313,0,0)"
font-family="Sans" font-size="10" font-weight="400" font-style="normal" 
>
</g>

<g fill="none" stroke="#000000" stroke-opacity="1" stroke-width="1" stroke-linecap="round" stroke-linejoin="round" transform="matrix(1.00313,0,0,1.00313,0,0)"
font-family="Sans" font-size="10" font-weight="400" font-style="normal" 
>
<polyline fill="none" vector-effect="none" points="337.8,407.3 341.1,405.8 " />
<polyline fill="none" vector-effect="none" points="529.5,320.2 526.1,321.7 " />
</g>

<g fill="none" stroke="#000000" stroke-opacity="1" stroke-width="1" stroke-linecap="square" stroke-linejoin="bevel" transform="matrix(1.00313,0,0,1.00313,0,0)"
font-family="Sans" font-size="10" font-weight="400" font-style="normal" 
>
</g>

<g fill="none" stroke="#000000" stroke-opacity="1" stroke-width="1" stroke-linecap="square" stroke-linejoin="bevel" transform="matrix(1.00313,0,0,1.00313,317.489,416.798)"
font-family="Sans" font-size="10" font-weight="400" font-style="normal" 
>
</g>

<g fill="none" stroke="#000000" stroke-opacity="1" stroke-width="1" stroke-linecap="square" stroke-linejoin="bevel" transform="matrix(1.00313,0,0,1.00313,317.489,416.798)"
font-family="Sans" font-size="10" font-weight="400" font-style="normal" 
>
</g>

<g fill="none" stroke="#000000" stroke-opacity="1" stroke-width="1" stroke-linecap="square" stroke-linejoin="bevel" transform="matrix(1.00313,0,0,1.00313,317.489,416.798)"
font-family="Sans" font-size="10" font-weight="400" font-style="normal" 
>
</g>

<g fill="none" stroke="#000000" stroke-opacity="1" stroke-width="1" stroke-linecap="square" stroke-linejoin="bevel" transform="matrix(1.00313,0,0,1.00313,317.489,416.798)"
font-family="Sans" font-size="10" font-weight="400" font-style="normal" 
>
</g>

<g fill="none" stroke="#000000" stroke-opacity="1" stroke-width="1" stroke-linecap="square" stroke-linejoin="bevel" transform="matrix(1.00313,0,0,1.00313,317.489,416.798)"
font-family="Sans" font-size="10" font-weight="400" font-style="normal" 
>
</g>

<g fill="none" stroke="#000000" stroke-opacity="1" stroke-width="1" stroke-linecap="square" stroke-linejoin="bevel" transform="matrix(1.00313,0,0,1.00313,317.489,416.798)"
font-family="Sans" font-size="9" font-weight="400" font-style="normal" 
>
<text fill="#000000" fill-opacity="1" stroke="none" xml:space="preserve" x="0" y="0" font-family="Sans" font-size="9" font-weight="400" font-style="normal" 
 > 4000</text>
</g>

<g fill="none" stroke="#000000" stroke-opacity="1" stroke-width="1" stroke-linecap="square" stroke-linejoin="bevel" transform="matrix(1.00313,0,0,1.00313,317.489,416.798)"
font-family="Sans" font-size="10" font-weight="400" font-style="normal" 
>
</g>

<g fill="none" stroke="#000000" stroke-opacity="1" stroke-width="1" stroke-linecap="square" stroke-linejoin="bevel" transform="matrix(1.00313,0,0,1.00313,0,0)"
font-family="Sans" font-size="10" font-weight="400" font-style="normal" 
>
</g>

<g fill="none" stroke="#000000" stroke-opacity="1" stroke-width="1" stroke-linecap="round" stroke-linejoin="round" transform="matrix(1.00313,0,0,1.00313,0,0)"
font-family="Sans" font-size="10" font-weight="400" font-style="normal" 
>
<polyline fill="none" vector-effect="none" points="82.5,282.5 88.5,282.5 " />
</g>

<g fill="none" stroke="#000000" stroke-opacity="1" stroke-width="1" stroke-linecap="square" stroke-linejoin="bevel" transform="matrix(1.00313,0,0,1.00313,0,0)"
font-family="Sans" font-size="10" font-weight="400" font-style="normal" 
>
</g>

<g fill="none" stroke="#000000" stroke-opacity="1" stroke-width="1" stroke-linecap="square" stroke-linejoin="bevel" transform="matrix(1.00313,0,0,1.00313,59.1844,288.398)"
font-family="Sans" font-size="10" font-weight="400" font-style="normal" 
>
</g>

<g fill="none" stroke="#000000" stroke-opacity="1" stroke-width="1" stroke-linecap="square" stroke-linejoin="bevel" transform="matrix(1.00313,0,0,1.00313,59.1844,288.398)"
font-family="Sans" font-size="10" font-weight="400" font-style="normal" 
>
</g>

<g fill="none" stroke="#000000" stroke-opacity="1" stroke-width="1" stroke-linecap="square" stroke-linejoin="bevel" transform="matrix(1.00313,0,0,1.00313,59.1844,288.398)"
font-family="Sans" font-size="10" font-weight="400" font-style="normal" 
>
</g>

<g fill="none" stroke="#000000" stroke-opacity="1" stroke-width="1" stroke-linecap="square" stroke-linejoin="bevel" transform="matrix(1.00313,0,0,1.00313,59.1844,288.398)"
font-family="Sans" font-size="10" font-weight="400" font-style="normal" 
>
</g>

<g fill="none" stroke="#000000" stroke-opacity="1" stroke-width="1" stroke-linecap="square" stroke-linejoin="bevel" transform="matrix(1.00313,0,0,1.00313,59.1844,288.398)"
font-family="Sans" font-size="10" font-weight="400" font-style="normal" 
>
</g>

<g fill="none" stroke="#000000" stroke-opacity="1" stroke-width="1" stroke-linecap="square" stroke-linejoin="bevel" transform="matrix(1.00313,0,0,1.00313,59.1844,288.398)"
font-family="Sans" font-size="9" font-weight="400" font-style="normal" 
>
<text fill="#000000" fill-opacity="1" stroke="none" xml:space="preserve" x="0" y="0" font-family="Sans" font-size="9" font-weight="400" font-style="normal" 
 > 0</text>
</g>

<g fill="none" stroke="#000000" stroke-opacity="1" stroke-width="1" stroke-linecap="square" stroke-linejoin="bevel" transform="matrix(1.00313,0,0,1.00313,59.1844,288.398)"
font-family="Sans" font-size="10" font-weight="400" font-style="normal" 
>
</g>

<g fill="none" stroke="#000000" stroke-opacity="1" stroke-width="1" stroke-linecap="square" stroke-linejoin="bevel" transform="matrix(1.00313,0,0,1.00313,0,0)"
font-family="Sans" font-size="10" font-weight="400" font-style="normal" 
>
</g>

<g fill="none" stroke="#000000" stroke-opacity="1" stroke-width="1" stroke-linecap="round" stroke-linejoin="round" transform="matrix(1.00313,0,0,1.00313,0,0)"
font-family="Sans" font-size="10" font-weight="400" font-style="normal" 
>
<polyline fill="none" vector-effect="none" points="82.5,246.5 88.5,246.5 " />
</g>

<g fill="none" stroke="#000000" stroke-opacity="1" stroke-width="1" stroke-linecap="square" stroke-linejoin="bevel" transform="matrix(1.00313,0,0,1.00313,0,0)"
font-family="Sans" font-size="10" font-weight="400" font-style="normal" 
>
</g>

<g fill="none" stroke="#000000" stroke-opacity="1" stroke-width="1" stroke-linecap="square" stroke-linejoin="bevel" transform="matrix(1.00313,0,0,1.00313,43.1344,252.286)"
font-family="Sans" font-size="10" font-weight="400" font-style="normal" 
>
</g>

<g fill="none" stroke="#000000" stroke-opacity="1" stroke-width="1" stroke-linecap="square" stroke-linejoin="bevel" transform="matrix(1.00313,0,0,1.00313,43.1344,252.286)"
font-family="Sans" font-size="10" font-weight="400" font-style="normal" 
>
</g>

<g fill="none" stroke="#000000" stroke-opacity="1" stroke-width="1" stroke-linecap="square" stroke-linejoin="bevel" transform="matrix(1.00313,0,0,1.00313,43.1344,252.286)"
font-family="Sans" font-size="10" font-weight="400" font-style="normal" 
>
</g>

<g fill="none" stroke="#000000" stroke-opacity="1" stroke-width="1" stroke-linecap="square" stroke-linejoin="bevel" transform="matrix(1.00313,0,0,1.00313,43.1344,252.286)"
font-family="Sans" font-size="10" font-weight="400" font-style="normal" 
>
</g>

<g fill="none" stroke="#000000" stroke-opacity="1" stroke-width="1" stroke-linecap="square" stroke-linejoin="bevel" transform="matrix(1.00313,0,0,1.00313,43.1344,252.286)"
font-family="Sans" font-size="10" font-weight="400" font-style="normal" 
>
</g>

<g fill="none" stroke="#000000" stroke-opacity="1" stroke-width="1" stroke-linecap="square" stroke-linejoin="bevel" transform="matrix(1.00313,0,0,1.00313,43.1344,252.286)"
font-family="Sans" font-size="9" font-weight="400" font-style="normal" 
>
<text fill="#000000" fill-opacity="1" stroke="none" xml:space="preserve" x="0" y="0" font-family="Sans" font-size="9" font-weight="400" font-style="normal" 
 > 500</text>
</g>

<g fill="none" stroke="#000000" stroke-opacity="1" stroke-width="1" stroke-linecap="square" stroke-linejoin="bevel" transform="matrix(1.00313,0,0,1.00313,43.1344,252.286)"
font-family="Sans" font-size="10" font-weight="400" font-style="normal" 
>
</g>

<g fill="none" stroke="#000000" stroke-opacity="1" stroke-width="1" stroke-linecap="square" stroke-linejoin="bevel" transform="matrix(1.00313,0,0,1.00313,0,0)"
font-family="Sans" font-size="10" font-weight="400" font-style="normal" 
>
</g>

<g fill="none" stroke="#000000" stroke-opacity="1" stroke-width="1" stroke-linecap="round" stroke-linejoin="round" transform="matrix(1.00313,0,0,1.00313,0,0)"
font-family="Sans" font-size="10" font-weight="400" font-style="normal" 
>
<polyline fill="none" vector-effect="none" points="82.5,210.5 88.5,210.5 " />
</g>

<g fill="none" stroke="#000000" stroke-opacity="1" stroke-width="1" stroke-linecap="square" stroke-linejoin="bevel" transform="matrix(1.00313,0,0,1.00313,0,0)"
font-family="Sans" font-size="10" font-weight="400" font-style="normal" 
>
</g>

<g fill="none" stroke="#000000" stroke-opacity="1" stroke-width="1" stroke-linecap="square" stroke-linejoin="bevel" transform="matrix(1.00313,0,0,1.00313,35.1094,216.173)"
font-family="Sans" font-size="10" font-weight="400" font-style="normal" 
>
</g>

<g fill="none" stroke="#000000" stroke-opacity="1" stroke-width="1" stroke-linecap="square" stroke-linejoin="bevel" transform="matrix(1.00313,0,0,1.00313,35.1094,216.173)"
font-family="Sans" font-size="10" font-weight="400" font-style="normal" 
>
</g>

<g fill="none" stroke="#000000" stroke-opacity="1" stroke-width="1" stroke-linecap="square" stroke-linejoin="bevel" transform="matrix(1.00313,0,0,1.00313,35.1094,216.173)"
font-family="Sans" font-size="10" font-weight="400" font-style="normal" 
>
</g>

<g fill="none" stroke="#000000" stroke-opacity="1" stroke-width="1" stroke-linecap="square" stroke-linejoin="bevel" transform="matrix(1.00313,0,0,1.00313,35.1094,216.173)"
font-family="Sans" font-size="10" font-weight="400" font-style="normal" 
>
</g>

<g fill="none" stroke="#000000" stroke-opacity="1" stroke-width="1" stroke-linecap="square" stroke-linejoin="bevel" transform="matrix(1.00313,0,0,1.00313,35.1094,216.173)"
font-family="Sans" font-size="10" font-weight="400" font-style="normal" 
>
</g>

<g fill="none" stroke="#000000" stroke-opacity="1" stroke-width="1" stroke-linecap="square" stroke-linejoin="bevel" transform="matrix(1.00313,0,0,1.00313,35.1094,216.173)"
font-family="Sans" font-size="9" font-weight="400" font-style="normal" 
>
<text fill="#000000" fill-opacity="1" stroke="none" xml:space="preserve" x="0" y="0" font-family="Sans" font-size="9" font-weight="400" font-style="normal" 
 > 1000</text>
</g>

<g fill="none" stroke="#000000" stroke-opacity="1" stroke-width="1" stroke-linecap="square" stroke-linejoin="bevel" transform="matrix(1.00313,0,0,1.00313,35.1094,216.173)"
font-family="Sans" font-size="10" font-weight="400" font-style="normal" 
>
</g>

<g fill="none" stroke="#000000" stroke-opacity="1" stroke-width="1" stroke-linecap="square" stroke-linejoin="bevel" transform="matrix(1.00313,0,0,1.00313,0,0)"
font-family="Sans" font-size="10" font-weight="400" font-style="normal" 
>
</g>

<g fill="none" stroke="#000000" stroke-opacity="1" stroke-width="1" stroke-linecap="round" stroke-linejoin="round" transform="matrix(1.00313,0,0,1.00313,0,0)"
font-family="Sans" font-size="10" font-weight="400" font-style="normal" 
>
<polyline fill="none" vector-effect="none" points="82.5,174.5 88.5,174.5 " />
</g>

<g fill="none" stroke="#000000" stroke-opacity="1" stroke-width="1" stroke-linecap="square" stroke-linejoin="bevel" transform="matrix(1.00313,0,0,1.00313,0,0)"
font-family="Sans" font-size="10" font-weight="400" font-style="normal" 
>
</g>

<g fill="none" stroke="#000000" stroke-opacity="1" stroke-width="1" stroke-linecap="square" stroke-linejoin="bevel" transform="matrix(1.00313,0,0,1.00313,35.1094,180.061)"
font-family="Sans" font-size="10" font-weight="400" font-style="normal" 
>
</g>

<g fill="none" stroke="#000000" stroke-opacity="1" stroke-width="1" stroke-linecap="square" stroke-linejoin="bevel" transform="matrix(1.00313,0,0,1.00313,35.1094,180.061)"
font-family="Sans" font-size="10" font-weight="400" font-style="normal" 
>
</g>

<g fill="none" stroke="#000000" stroke-opacity="1" stroke-width="1" stroke-linecap="square" stroke-linejoin="bevel" transform="matrix(1.00313,0,0,1.00313,35.1094,180.061)"
font-family="Sans" font-size="10" font-weight="400" font-style="normal" 
>
</g>

<g fill="none" stroke="#000000" stroke-opacity="1" stroke-width="1" stroke-linecap="square" stroke-linejoin="bevel" transform="matrix(1.00313,0,0,1.00313,35.1094,180.061)"
font-family="Sans" font-size="10" font-weight="400" font-style="normal" 
>
</g>

<g fill="none" stroke="#000000" stroke-opacity="1" stroke-width="1" stroke-linecap="square" stroke-linejoin="bevel" transform="matrix(1.00313,0,0,1.00313,35.1094,180.061)"
font-family="Sans" font-size="10" font-weight="400" font-style="normal" 
>
</g>

<g fill="none" stroke="#000000" stroke-opacity="1" stroke-width="1" stroke-linecap="square" stroke-linejoin="bevel" transform="matrix(1.00313,0,0,1.00313,35.1094,180.061)"
font-family="Sans" font-size="9" font-weight="400" font-style="normal" 
>
<text fill="#000000" fill-opacity="1" stroke="none" xml:space="preserve" x="0" y="0" font-family="Sans" font-size="9" font-weight="400" font-style="normal" 
 > 1500</text>
</g>

<g fill="none" stroke="#000000" stroke-opacity="1" stroke-width="1" stroke-linecap="square" stroke-linejoin="bevel" transform="matrix(1.00313,0,0,1.00313,35.1094,180.061)"
font-family="Sans" font-size="10" font-weight="400" font-style="normal" 
>
</g>

<g fill="none" stroke="#000000" stroke-opacity="1" stroke-width="1" stroke-linecap="square" stroke-linejoin="bevel" transform="matrix(1.00313,0,0,1.00313,0,0)"
font-family="Sans" font-size="10" font-weight="400" font-style="normal" 
>
</g>

<g fill="none" stroke="#000000" stroke-opacity="1" stroke-width="1" stroke-linecap="round" stroke-linejoin="round" transform="matrix(1.00313,0,0,1.00313,0,0)"
font-family="Sans" font-size="10" font-weight="400" font-style="normal" 
>
<polyline fill="none" vector-effect="none" points="82.5,139.5 88.5,139.5 " />
</g>

<g fill="none" stroke="#000000" stroke-opacity="1" stroke-width="1" stroke-linecap="square" stroke-linejoin="bevel" transform="matrix(1.00313,0,0,1.00313,0,0)"
font-family="Sans" font-size="10" font-weight="400" font-style="normal" 
>
</g>

<g fill="none" stroke="#000000" stroke-opacity="1" stroke-width="1" stroke-linecap="square" stroke-linejoin="bevel" transform="matrix(1.00313,0,0,1.00313,35.1094,143.948)"
font-family="Sans" font-size="10" font-weight="400" font-style="normal" 
>
</g>

<g fill="none" stroke="#000000" stroke-opacity="1" stroke-width="1" stroke-linecap="square" stroke-linejoin="bevel" transform="matrix(1.00313,0,0,1.00313,35.1094,143.948)"
font-family="Sans" font-size="10" font-weight="400" font-style="normal" 
>
</g>

<g fill="none" stroke="#000000" stroke-opacity="1" stroke-width="1" stroke-linecap="square" stroke-linejoin="bevel" transform="matrix(1.00313,0,0,1.00313,35.1094,143.948)"
font-family="Sans" font-size="10" font-weight="400" font-style="normal" 
>
</g>

<g fill="none" stroke="#000000" stroke-opacity="1" stroke-width="1" stroke-linecap="square" stroke-linejoin="bevel" transform="matrix(1.00313,0,0,1.00313,35.1094,143.948)"
font-family="Sans" font-size="10" font-weight="400" font-style="normal" 
>
</g>

<g fill="none" stroke="#000000" stroke-opacity="1" stroke-width="1" stroke-linecap="square" stroke-linejoin="bevel" transform="matrix(1.00313,0,0,1.00313,35.1094,143.948)"
font-family="Sans" font-size="10" font-weight="400" font-style="normal" 
>
</g>

<g fill="none" stroke="#000000" stroke-opacity="1" stroke-width="1" stroke-linecap="square" stroke-linejoin="bevel" transform="matrix(1.00313,0,0,1.00313,35.1094,143.948)"
font-family="Sans" font-size="9" font-weight="400" font-style="normal" 
>
<text fill="#000000" fill-opacity="1" stroke="none" xml:space="preserve" x="0" y="0" font-family="Sans" font-size="9" font-weight="400" font-style="normal" 
 > 2000</text>
</g>

<g fill="none" stroke="#000000" stroke-opacity="1" stroke-width="1" stroke-linecap="square" stroke-linejoin="bevel" transform="matrix(1.00313,0,0,1.00313,35.1094,143.948)"
font-family="Sans" font-size="10" font-weight="400" font-style="normal" 
>
</g>

<g fill="none" stroke="#000000" stroke-opacity="1" stroke-width="1" stroke-linecap="square" stroke-linejoin="bevel" transform="matrix(1.00313,0,0,1.00313,415.482,24.5766)"
font-family="Sans" font-size="10" font-weight="400" font-style="normal" 
>
</g>

<g fill="none" stroke="#000000" stroke-opacity="1" stroke-width="1" stroke-linecap="square" stroke-linejoin="bevel" transform="matrix(1.00313,0,0,1.00313,415.482,24.5766)"
font-family="Sans" font-size="10" font-weight="400" font-style="normal" 
>
</g>

<g fill="none" stroke="#000000" stroke-opacity="1" stroke-width="1" stroke-linecap="square" stroke-linejoin="bevel" transform="matrix(1.00313,0,0,1.00313,415.482,24.5766)"
font-family="Sans" font-size="10" font-weight="400" font-style="normal" 
>
</g>

<g fill="none" stroke="#000000" stroke-opacity="1" stroke-width="1" stroke-linecap="square" stroke-linejoin="bevel" transform="matrix(1.00313,0,0,1.00313,415.482,24.5766)"
font-family="Sans" font-size="10" font-weight="400" font-style="normal" 
>
<text fill="#000000" fill-opacity="1" stroke="none" xml:space="preserve" x="4" y="16" font-family="Sans" font-size="9" font-weight="400" font-style="normal" 
 >(2/x)*(y/4)**2</text>
</g>

<g fill="none" stroke="#000000" stroke-opacity="1" stroke-width="1" stroke-linecap="square" stroke-linejoin="bevel" transform="matrix(1.00313,0,0,1.00313,415.482,24.5766)"
font-family="Sans" font-size="10" font-weight="400" font-style="normal" 
>
</g>

<g fill="none" stroke="#000000" stroke-opacity="1" stroke-width="1" stroke-linecap="square" stroke-linejoin="bevel" transform="matrix(1,0,0,1,0,0)"
font-family="Sans" font-size="10" font-weight="400" font-style="normal" 
>
</g>

<g fill="none" stroke="#000000" stroke-opacity="1" stroke-width="1" stroke-linecap="square" stroke-linejoin="bevel" transform="matrix(1.00313,0,0,1.00313,415.482,24.5766)"
font-family="Sans" font-size="10" font-weight="400" font-style="normal" 
>
</g>

<g fill="none" stroke="#000000" stroke-opacity="1" stroke-width="1" stroke-linecap="square" stroke-linejoin="bevel" transform="matrix(1.00313,0,0,1.00313,415.482,24.5766)"
font-family="Sans" font-size="10" font-weight="400" font-style="normal" 
>
</g>

<g fill="none" stroke="#000000" stroke-opacity="1" stroke-width="1" stroke-linecap="square" stroke-linejoin="bevel" transform="matrix(1.00313,0,0,1.00313,415.482,24.5766)"
font-family="Sans" font-size="10" font-weight="400" font-style="normal" 
>
</g>

<g fill="none" stroke="#000000" stroke-opacity="1" stroke-width="1" stroke-linecap="square" stroke-linejoin="bevel" transform="matrix(1.00313,0,0,1.00313,0,0)"
font-family="Sans" font-size="10" font-weight="400" font-style="normal" 
>
</g>

<g fill="none" stroke="#9400d3" stroke-opacity="1" stroke-width="1" stroke-linecap="round" stroke-linejoin="round" transform="matrix(1.00313,0,0,1.00313,0,0)"
font-family="Sans" font-size="10" font-weight="400" font-style="normal" 
>
<path vector-effect="none" fill-rule="evenodd" d="M510.5,36.5 L544.5,36.5"/>
</g>

<g fill="none" stroke="#000000" stroke-opacity="1" stroke-width="1" stroke-linecap="square" stroke-linejoin="bevel" transform="matrix(1.00313,0,0,1.00313,0,0)"
font-family="Sans" font-size="10" font-weight="400" font-style="normal" 
>
</g>

<g fill="none" stroke="#000000" stroke-opacity="1" stroke-width="1" stroke-linecap="square" stroke-linejoin="bevel" transform="matrix(1.00313,0,0,1.00313,0,0)"
font-family="Sans" font-size="10" font-weight="400" font-style="normal" 
>
</g>

<g fill="none" stroke="#000000" stroke-opacity="1" stroke-width="1" stroke-linecap="square" stroke-linejoin="bevel" transform="matrix(1.00313,0,0,1.00313,0,0)"
font-family="Sans" font-size="10" font-weight="400" font-style="normal" 
>
</g>

<g fill="none" stroke="#000000" stroke-opacity="1" stroke-width="1" stroke-linecap="square" stroke-linejoin="bevel" transform="matrix(1.00313,0,0,1.00313,0,0)"
font-family="Sans" font-size="10" font-weight="400" font-style="normal" 
>
</g>

<g fill="none" stroke="#9400d3" stroke-opacity="1" stroke-width="1" stroke-linecap="round" stroke-linejoin="round" transform="matrix(1.00313,0,0,1.00313,0,0)"
font-family="Sans" font-size="10" font-weight="400" font-style="normal" 
>
<polyline fill="none" vector-effect="none" points="243.8,65.4 242.8,70.7 242.8,70.7 240.9,79.7 240.9,79.7 238.9,87.9 238.9,87.9 237,95.2 237,95.2 235.1,102 235.1,102 233.1,108.2 233.1,108.2 231.2,113.8 231.2,113.8 229.3,119.1 229.3,119.1 227.3,124 227.3,124 225.4,128.6 225.4,128.6 223.5,132.9 223.5,132.9 221.5,137 221.5,137 219.6,140.8 219.6,140.8 217.6,144.4 217.6,144.4 215.7,147.8 215.7,147.8 213.8,151.1 213.8,151.1 211.8,154.2 211.8,154.2 209.9,157.2 209.9,157.2 208,160.1 208,160.1 206,162.8 206,162.8 204.1,165.5 204.1,165.5 202.2,168 202.2,168 200.2,170.5 200.2,170.5 198.3,172.8 198.3,172.8 196.3,175.2 196.3,175.2 194.4,177.4 194.4,177.4 192.5,179.6 192.5,179.6 190.5,181.7 190.5,181.7 188.6,183.7 188.6,183.7 186.7,185.7 186.7,185.7 184.7,187.7 184.7,187.7 182.8,189.6 182.8,189.6 180.9,191.5 180.9,191.5 178.9,193.3 178.9,193.3 177,195.1 177,195.1 175,196.8 175,196.8 173.1,198.5 173.1,198.5 171.2,200.2 171.2,200.2 169.2,201.9 169.2,201.9 167.3,203.5 167.3,203.5 165.4,205.1 165.4,205.1 163.4,206.7 163.4,206.7 161.5,208.2 161.5,208.2 159.6,209.8 159.6,209.8 157.6,211.3 157.6,211.3 155.7,212.8 155.7,212.8 153.7,214.2 153.7,214.2 151.8,215.7 151.8,215.7 149.9,217.1 149.9,217.1 147.9,218.5 147.9,218.5 146,219.9 146,219.9 144.1,221.3 144.1,221.3 142.1,222.7 142.1,222.7 140.2,224 140.2,224 138.3,225.4 138.3,225.4 136.3,226.7 136.3,226.7 134.4,228 134.4,228 132.5,229.3 132.5,229.3 130.5,230.6 130.5,230.6 128.6,231.9 128.6,231.9 126.6,233.1 126.6,233.1 124.7,234.3 124.7,234.3 122.8,235.6 122.8,235.6 120.8,236.8 120.8,236.8 118.9,238 118.9,238 117,239.3 117,239.3 115,240.5 115,240.5 113.1,241.7 113.1,241.7 111.2,242.9 111.2,242.9 109.2,244.1 109.2,244.1 107.3,245.3 107.3,245.3 105.3,246.4 105.3,246.4 103.4,247.6 103.4,247.6 101.5,248.8 101.5,248.8 99.5,249.9 99.5,249.9 97.6,251.1 97.6,251.1 95.7,252.2 95.7,252.2 93.7,253.4 93.7,253.4 91.8,254.5 91.8,254.5 89.9,255.6 89.9,255.6 87.9,256.8 87.9,256.8 86,257.9 86,257.9 84,259 84,259 82.1,260.1 " />
<polyline fill="none" vector-effect="none" points="287.2,66.6 286,76.4 286,76.4 284.1,89.5 284.1,89.5 282.1,100.6 282.1,100.6 280.2,110.1 280.2,110.1 278.3,118.3 278.3,118.3 276.3,125.6 276.3,125.6 274.4,132.1 274.4,132.1 272.5,137.9 272.5,137.9 270.5,143.2 270.5,143.2 268.6,148 268.6,148 266.7,152.4 266.7,152.4 264.7,156.5 264.7,156.5 262.8,160.3 262.8,160.3 260.8,163.8 260.8,163.8 258.9,167.1 258.9,167.1 257,170.3 257,170.3 255,173.2 255,173.2 253.1,176 253.1,176 251.2,178.7 251.2,178.7 249.2,181.2 249.2,181.2 247.3,183.6 247.3,183.6 245.4,186 245.4,186 243.4,188.2 243.4,188.2 241.5,190.3 241.5,190.3 239.5,192.4 239.5,192.4 237.6,194.4 237.6,194.4 235.7,196.4 235.7,196.4 233.7,198.3 233.7,198.3 231.8,200.1 231.8,200.1 229.9,201.9 229.9,201.9 227.9,203.6 227.9,203.6 226,205.3 226,205.3 224.1,207 224.1,207 222.1,208.6 222.1,208.6 220.2,210.2 220.2,210.2 218.2,211.8 218.2,211.8 216.3,213.3 216.3,213.3 214.4,214.8 214.4,214.8 212.4,216.3 212.4,216.3 210.5,217.7 210.5,217.7 208.6,219.2 208.6,219.2 206.6,220.6 206.6,220.6 204.7,222 204.7,222 202.8,223.3 202.8,223.3 200.8,224.7 200.8,224.7 198.9,226 198.9,226 196.9,227.3 196.9,227.3 195,228.6 195,228.6 193.1,229.9 193.1,229.9 191.1,231.2 191.1,231.2 189.2,232.4 189.2,232.4 187.3,233.6 187.3,233.6 185.3,234.8 185.3,234.8 183.4,236.1 183.4,236.1 181.5,237.3 181.5,237.3 179.5,238.5 179.5,238.5 177.6,239.7 177.6,239.7 175.6,240.8 175.6,240.8 173.7,242 173.7,242 171.8,243.2 171.8,243.2 169.8,244.3 169.8,244.3 167.9,245.5 167.9,245.5 166,246.6 166,246.6 164,247.8 164,247.8 162.1,248.9 162.1,248.9 160.2,250 160.2,250 158.2,251.1 158.2,251.1 156.3,252.3 156.3,252.3 154.3,253.4 154.3,253.4 152.4,254.5 152.4,254.5 150.5,255.6 150.5,255.6 148.5,256.6 148.5,256.6 146.6,257.7 146.6,257.7 144.7,258.8 144.7,258.8 142.7,259.9 142.7,259.9 140.8,260.9 140.8,260.9 138.9,262 138.9,262 136.9,263.1 136.9,263.1 135,264.1 135,264.1 133,265.2 133,265.2 131.1,266.2 131.1,266.2 129.2,267.3 129.2,267.3 127.2,268.3 127.2,268.3 125.3,269.3 125.3,269.3 123.4,270.4 123.4,270.4 121.4,271.4 121.4,271.4 119.5,272.4 119.5,272.4 117.6,273.5 117.6,273.5 115.6,274.5 115.6,274.5 113.7,275.5 " />
<polyline fill="none" vector-effect="none" points="327.5,69.1 327.2,75.8 327.2,75.8 325.2,99.5 325.2,99.5 323.3,116.7 323.3,116.7 321.4,129.9 321.4,129.9 319.5,140.3 319.5,140.3 317.6,148.8 317.6,148.8 315.7,155.9 315.7,155.9 313.7,162 313.7,162 311.8,167.2 311.8,167.2 309.8,171.9 309.8,171.9 307.9,176 307.9,176 306,179.8 306,179.8 304,183.2 304,183.2 302.1,186.3 302.1,186.3 300.2,189.2 300.2,189.2 298.2,191.9 298.2,191.9 296.3,194.4 296.3,194.4 294.4,196.8 294.4,196.8 292.4,199 292.4,199 290.5,201.1 290.5,201.1 288.5,203.1 288.5,203.1 286.6,205.1 286.6,205.1 284.7,206.9 284.7,206.9 282.7,208.7 282.7,208.7 280.8,210.4 280.8,210.4 278.9,212.1 278.9,212.1 276.9,213.7 276.9,213.7 275,215.3 275,215.3 273.1,216.8 273.1,216.8 271.1,218.3 271.1,218.3 269.2,219.8 269.2,219.8 267.2,221.2 267.2,221.2 265.3,222.6 265.3,222.6 263.4,224 263.4,224 261.4,225.3 261.4,225.3 259.5,226.6 259.5,226.6 257.6,227.9 257.6,227.9 255.6,229.2 255.6,229.2 253.7,230.5 253.7,230.5 251.8,231.7 251.8,231.7 249.8,232.8 249.8,232.8 247.9,234 247.9,234 245.9,235.2 245.9,235.2 244,236.4 244,236.4 242.1,237.6 242.1,237.6 240.1,238.8 240.1,238.8 238.2,239.9 238.2,239.9 236.3,241.1 236.3,241.1 234.3,242.2 234.3,242.2 232.4,243.3 232.4,243.3 230.5,244.4 230.5,244.4 228.5,245.5 228.5,245.5 226.6,246.6 226.6,246.6 224.6,247.7 224.6,247.7 222.7,248.8 222.7,248.8 220.8,249.9 220.8,249.9 218.8,250.9 218.8,250.9 216.9,252 216.9,252 215,253 215,253 213,254.1 213,254.1 211.1,255.1 211.1,255.1 209.2,256.2 209.2,256.2 207.2,257.2 207.2,257.2 205.3,258.2 205.3,258.2 203.3,259.3 203.3,259.3 201.4,260.3 201.4,260.3 199.5,261.3 199.5,261.3 197.5,262.3 197.5,262.3 195.6,263.3 195.6,263.3 193.7,264.3 193.7,264.3 191.7,265.3 191.7,265.3 189.8,266.3 189.8,266.3 187.9,267.3 187.9,267.3 185.9,268.3 185.9,268.3 184,269.3 184,269.3 182.1,270.3 182.1,270.3 180.1,271.3 180.1,271.3 178.2,272.3 178.2,272.3 176.2,273.3 176.2,273.3 174.3,274.2 174.3,274.2 172.4,275.2 172.4,275.2 170.4,276.2 170.4,276.2 168.5,277.2 168.5,277.2 166.6,278.1 166.6,278.1 164.6,279.1 164.6,279.1 162.7,280.1 162.7,280.1 160.8,281 160.8,281 158.8,282 158.8,282 156.9,283 156.9,283 154.9,283.9 154.9,283.9 153,284.9 153,284.9 151.1,285.8 151.1,285.8 149.1,286.8 149.1,286.8 147.2,287.7 147.2,287.7 145.3,288.7 " />
<polyline fill="none" vector-effect="none" points="364.9,73 364.6,93.4 364.6,93.4 362.6,135.4 362.6,135.4 360.7,156.9 360.7,156.9 358.7,170.1 358.7,170.1 356.8,179.2 356.8,179.2 354.9,186 354.9,186 352.9,191.3 352.9,191.3 351,195.6 351,195.6 349.1,199.2 349.1,199.2 347.1,202.3 347.1,202.3 345.2,205.1 345.2,205.1 343.3,207.5 343.3,207.5 341.3,209.8 341.3,209.8 339.4,211.8 339.4,211.8 337.4,213.7 337.4,213.7 335.5,215.5 335.5,215.5 333.6,217.2 333.6,217.2 331.6,218.8 331.6,218.8 329.7,220.4 329.7,220.4 327.8,221.8 327.8,221.8 325.8,223.2 325.8,223.2 323.9,224.6 323.9,224.6 322,225.9 322,225.9 320,227.2 320,227.2 318.2,228.5 318.2,228.5 316.3,229.7 316.3,229.7 314.3,230.9 314.3,230.9 312.4,232.1 312.4,232.1 310.4,233.2 310.4,233.2 308.5,234.3 308.5,234.3 306.6,235.5 306.6,235.5 304.6,236.6 304.6,236.6 302.7,237.7 302.7,237.7 300.8,238.8 300.8,238.8 298.8,239.8 298.8,239.8 296.9,240.9 296.9,240.9 295,242 295,242 293,243 293,243 291.1,244 291.1,244 289.1,245.1 289.1,245.1 287.2,246.1 287.2,246.1 285.3,247.1 285.3,247.1 283.3,248.1 283.3,248.1 281.4,249.1 281.4,249.1 279.5,250.1 279.5,250.1 277.5,251.1 277.5,251.1 275.6,252.1 275.6,252.1 273.7,253.1 273.7,253.1 271.7,254.1 271.7,254.1 269.8,255.1 269.8,255.1 267.8,256 267.8,256 265.9,257 265.9,257 264,258 264,258 262,258.9 262,258.9 260.1,259.9 260.1,259.9 258.2,260.8 258.2,260.8 256.2,261.8 256.2,261.8 254.3,262.8 254.3,262.8 252.4,263.7 252.4,263.7 250.4,264.6 250.4,264.6 248.5,265.6 248.5,265.6 246.5,266.5 246.5,266.5 244.6,267.5 244.6,267.5 242.7,268.4 242.7,268.4 240.7,269.4 240.7,269.4 238.8,270.3 238.8,270.3 236.9,271.2 236.9,271.2 234.9,272.2 234.9,272.2 233,273.1 233,273.1 231.1,274 231.1,274 229.1,275 229.1,275 227.2,275.9 227.2,275.9 225.2,276.8 225.2,276.8 223.3,277.7 223.3,277.7 221.4,278.7 221.4,278.7 219.4,279.6 219.4,279.6 217.5,280.5 217.5,280.5 215.6,281.4 215.6,281.4 213.6,282.3 213.6,282.3 211.7,283.3 211.7,283.3 209.8,284.2 209.8,284.2 207.8,285.1 207.8,285.1 205.9,286 205.9,286 203.9,286.9 203.9,286.9 202,287.8 202,287.8 200.1,288.7 200.1,288.7 198.1,289.7 198.1,289.7 196.2,290.6 196.2,290.6 194.3,291.5 194.3,291.5 192.3,292.4 192.3,292.4 190.4,293.3 190.4,293.3 188.5,294.2 188.5,294.2 186.5,295.1 186.5,295.1 184.6,296 184.6,296 182.6,296.9 182.6,296.9 180.7,297.8 180.7,297.8 178.8,298.7 178.8,298.7 176.8,299.7 " />
<polyline fill="none" vector-effect="none" points="398.1,195.1 396.1,209.7 396.1,209.7 394.2,215.1 394.2,215.1 392.3,218.3 392.3,218.3 390.3,220.5 390.3,220.5 388.4,222.3 388.4,222.3 386.5,223.9 386.5,223.9 384.5,225.2 384.5,225.2 382.6,226.5 382.6,226.5 380.6,227.7 380.6,227.7 378.7,228.8 378.7,228.8 376.8,229.9 376.8,229.9 374.8,231 374.8,231 372.9,232 372.9,232 371,232.9 371,232.9 369,233.9 369,233.9 367.1,234.9 367.1,234.9 365.2,235.9 365.2,235.9 363.2,236.8 363.2,236.8 361.3,237.8 361.3,237.8 359.3,238.7 359.3,238.7 357.4,239.7 357.4,239.7 355.5,240.6 355.5,240.6 353.5,241.5 353.5,241.5 351.6,242.4 351.6,242.4 349.7,243.4 349.7,243.4 347.7,244.3 347.7,244.3 345.8,245.2 345.8,245.2 343.9,246.1 343.9,246.1 341.9,247 341.9,247 340,247.9 340,247.9 338,248.8 338,248.8 336.1,249.7 336.1,249.7 334.2,250.7 334.2,250.7 332.2,251.6 332.2,251.6 330.3,252.5 330.3,252.5 328.4,253.4 328.4,253.4 326.4,254.3 326.4,254.3 324.5,255.2 324.5,255.2 322.6,256.1 322.6,256.1 320.6,257 320.6,257 318.8,257.9 318.8,257.9 316.8,258.7 316.8,258.7 314.9,259.6 314.9,259.6 313,260.5 313,260.5 311,261.4 311,261.4 309.1,262.3 309.1,262.3 307.2,263.2 307.2,263.2 305.2,264.1 305.2,264.1 303.3,265 303.3,265 301.4,265.9 301.4,265.9 299.4,266.8 299.4,266.8 297.5,267.7 297.5,267.7 295.5,268.6 295.5,268.6 293.6,269.4 293.6,269.4 291.7,270.3 291.7,270.3 289.7,271.2 289.7,271.2 287.8,272.1 287.8,272.1 285.9,273 285.9,273 283.9,273.9 283.9,273.9 282,274.8 282,274.8 280.1,275.7 280.1,275.7 278.1,276.6 278.1,276.6 276.2,277.4 276.2,277.4 274.2,278.3 274.2,278.3 272.3,279.2 272.3,279.2 270.4,280.1 270.4,280.1 268.4,281 268.4,281 266.5,281.9 266.5,281.9 264.6,282.8 264.6,282.8 262.6,283.6 262.6,283.6 260.7,284.5 260.7,284.5 258.8,285.4 258.8,285.4 256.8,286.3 256.8,286.3 254.9,287.2 254.9,287.2 253,288.1 253,288.1 251,289 251,289 249.1,289.8 249.1,289.8 247.1,290.7 247.1,290.7 245.2,291.6 245.2,291.6 243.3,292.5 243.3,292.5 241.3,293.4 241.3,293.4 239.4,294.3 239.4,294.3 237.5,295.1 237.5,295.1 235.5,296 235.5,296 233.6,296.9 233.6,296.9 231.7,297.8 231.7,297.8 229.7,298.7 229.7,298.7 227.8,299.6 227.8,299.6 225.8,300.5 225.8,300.5 223.9,301.3 223.9,301.3 222,302.2 222,302.2 220,303.1 220,303.1 218.1,304 218.1,304 216.2,304.9 216.2,304.9 214.2,305.8 214.2,305.8 212.3,306.6 212.3,306.6 210.4,307.5 210.4,307.5 208.4,308.4 " />
<polyline fill="none" vector-effect="none" points="429.6,201.6 427.7,216.2 427.7,216.2 425.8,221.7 425.8,221.7 423.8,224.8 423.8,224.8 421.9,227.1 421.9,227.1 420,228.9 420,228.9 418,230.4 418,230.4 416.1,231.8 416.1,231.8 414.2,232.9 414.2,232.9 412.2,234.1 412.2,234.1 410.3,235.3 410.3,235.3 408.3,236.3 408.3,236.3 406.4,237.4 406.4,237.4 404.5,238.4 404.5,238.4 402.5,239.4 402.5,239.4 400.6,240.4 400.6,240.4 398.7,241.4 398.7,241.4 396.7,242.4 396.7,242.4 394.8,243.3 394.8,243.3 392.9,244.3 392.9,244.3 390.9,245.2 390.9,245.2 389,246.2 389,246.2 387,247.1 387,247.1 385.1,248 385.1,248 383.2,249 383.2,249 381.2,249.9 381.2,249.9 379.3,250.8 379.3,250.8 377.4,251.7 377.4,251.7 375.4,252.6 375.4,252.6 373.5,253.6 373.5,253.6 371.6,254.5 371.6,254.5 369.6,255.4 369.6,255.4 367.7,256.3 367.7,256.3 365.8,257.2 365.8,257.2 363.8,258.1 363.8,258.1 361.9,259 361.9,259 359.9,259.9 359.9,259.9 358,260.8 358,260.8 356.1,261.7 356.1,261.7 354.1,262.6 354.1,262.6 352.2,263.5 352.2,263.5 350.3,264.4 350.3,264.4 348.3,265.3 348.3,265.3 346.4,266.2 346.4,266.2 344.5,267.1 344.5,267.1 342.5,268 342.5,268 340.6,268.9 340.6,268.9 338.6,269.7 338.6,269.7 336.7,270.6 336.7,270.6 334.8,271.5 334.8,271.5 332.8,272.4 332.8,272.4 330.9,273.3 330.9,273.3 329,274.2 329,274.2 327,275.1 327,275.1 325.1,276 325.1,276 323.2,276.9 323.2,276.9 321.2,277.8 321.2,277.8 319.4,278.6 319.4,278.6 317.4,279.5 317.4,279.5 315.5,280.4 315.5,280.4 313.6,281.3 313.6,281.3 311.6,282.2 311.6,282.2 309.7,283.1 309.7,283.1 307.8,284 307.8,284 305.8,284.9 305.8,284.9 303.9,285.7 303.9,285.7 302,286.6 302,286.6 300,287.5 300,287.5 298.1,288.4 298.1,288.4 296.1,289.3 296.1,289.3 294.2,290.2 294.2,290.2 292.3,291.1 292.3,291.1 290.3,291.9 290.3,291.9 288.4,292.8 288.4,292.8 286.5,293.7 286.5,293.7 284.5,294.6 284.5,294.6 282.6,295.5 282.6,295.5 280.7,296.4 280.7,296.4 278.7,297.3 278.7,297.3 276.8,298.1 276.8,298.1 274.8,299 274.8,299 272.9,299.9 272.9,299.9 271,300.8 271,300.8 269,301.7 269,301.7 267.1,302.6 267.1,302.6 265.2,303.4 265.2,303.4 263.2,304.3 263.2,304.3 261.3,305.2 261.3,305.2 259.4,306.1 259.4,306.1 257.4,307 257.4,307 255.5,307.9 255.5,307.9 253.5,308.8 253.5,308.8 251.6,309.6 251.6,309.6 249.7,310.5 249.7,310.5 247.7,311.4 247.7,311.4 245.8,312.3 245.8,312.3 243.9,313.2 243.9,313.2 241.9,314.1 241.9,314.1 240,314.9 " />
<polyline fill="none" vector-effect="none" points="459.6,92.6 459.3,113 459.3,113 457.4,155 457.4,155 455.4,176.5 455.4,176.5 453.5,189.7 453.5,189.7 451.5,198.8 451.5,198.8 449.6,205.6 449.6,205.6 447.7,210.9 447.7,210.9 445.7,215.2 445.7,215.2 443.8,218.8 443.8,218.8 441.9,221.9 441.9,221.9 439.9,224.7 439.9,224.7 438,227.1 438,227.1 436.1,229.4 436.1,229.4 434.1,231.4 434.1,231.4 432.2,233.2 432.2,233.2 430.2,235 430.2,235 428.3,236.7 428.3,236.7 426.4,238.3 426.4,238.3 424.4,239.9 424.4,239.9 422.5,241.3 422.5,241.3 420.6,242.7 420.6,242.7 418.6,244.1 418.6,244.1 416.7,245.4 416.7,245.4 414.8,246.7 414.8,246.7 412.8,248 412.8,248 410.9,249.2 410.9,249.2 408.9,250.4 408.9,250.4 407,251.6 407,251.6 405.1,252.8 405.1,252.8 403.1,253.9 403.1,253.9 401.2,255 401.2,255 399.3,256.2 399.3,256.2 397.3,257.3 397.3,257.3 395.4,258.3 395.4,258.3 393.5,259.4 393.5,259.4 391.5,260.5 391.5,260.5 389.6,261.5 389.6,261.5 387.6,262.6 387.6,262.6 385.7,263.6 385.7,263.6 383.8,264.7 383.8,264.7 381.8,265.7 381.8,265.7 379.9,266.7 379.9,266.7 378,267.7 378,267.7 376,268.7 376,268.7 374.1,269.7 374.1,269.7 372.2,270.7 372.2,270.7 370.2,271.7 370.2,271.7 368.3,272.7 368.3,272.7 366.3,273.7 366.3,273.7 364.4,274.6 364.4,274.6 362.5,275.6 362.5,275.6 360.5,276.6 360.5,276.6 358.6,277.6 358.6,277.6 356.7,278.5 356.7,278.5 354.7,279.5 354.7,279.5 352.8,280.4 352.8,280.4 350.9,281.4 350.9,281.4 348.9,282.3 348.9,282.3 347,283.3 347,283.3 345,284.2 345,284.2 343.1,285.2 343.1,285.2 341.2,286.1 341.2,286.1 339.2,287.1 339.2,287.1 337.3,288 337.3,288 335.4,289 335.4,289 333.4,289.9 333.4,289.9 331.5,290.8 331.5,290.8 329.6,291.8 329.6,291.8 327.6,292.7 327.6,292.7 325.7,293.6 325.7,293.6 323.7,294.5 323.7,294.5 321.8,295.5 321.8,295.5 320,296.4 320,296.4 318,297.3 318,297.3 316.1,298.2 316.1,298.2 314.2,299.2 314.2,299.2 312.2,300.1 312.2,300.1 310.3,301 310.3,301 308.4,301.9 308.4,301.9 306.4,302.8 306.4,302.8 304.5,303.8 304.5,303.8 302.6,304.7 302.6,304.7 300.6,305.6 300.6,305.6 298.7,306.5 298.7,306.5 296.7,307.4 296.7,307.4 294.8,308.3 294.8,308.3 292.9,309.3 292.9,309.3 290.9,310.2 290.9,310.2 289,311.1 289,311.1 287.1,312 287.1,312 285.1,312.9 285.1,312.9 283.2,313.8 283.2,313.8 281.3,314.7 281.3,314.7 279.3,315.6 279.3,315.6 277.4,316.5 277.4,316.5 275.4,317.4 275.4,317.4 273.5,318.3 273.5,318.3 271.6,319.2 " />
<polyline fill="none" vector-effect="none" points="485.4,101.8 485.1,108.4 485.1,108.4 483.1,132.2 483.1,132.2 481.2,149.4 481.2,149.4 479.2,162.5 479.2,162.5 477.3,172.9 477.3,172.9 475.4,181.4 475.4,181.4 473.4,188.5 473.4,188.5 471.5,194.6 471.5,194.6 469.6,199.9 469.6,199.9 467.6,204.5 467.6,204.5 465.7,208.7 465.7,208.7 463.8,212.4 463.8,212.4 461.8,215.8 461.8,215.8 459.9,219 459.9,219 457.9,221.8 457.9,221.8 456,224.5 456,224.5 454.1,227 454.1,227 452.1,229.4 452.1,229.4 450.2,231.6 450.2,231.6 448.3,233.7 448.3,233.7 446.3,235.7 446.3,235.7 444.4,237.6 444.4,237.6 442.5,239.5 442.5,239.5 440.5,241.3 440.5,241.3 438.6,243 438.6,243 436.7,244.7 436.7,244.7 434.7,246.3 434.7,246.3 432.8,247.9 432.8,247.9 430.8,249.4 430.8,249.4 428.9,250.9 428.9,250.9 427,252.3 427,252.3 425,253.8 425,253.8 423.1,255.2 423.1,255.2 421.2,256.5 421.2,256.5 419.2,257.9 419.2,257.9 417.3,259.2 417.3,259.2 415.4,260.5 415.4,260.5 413.4,261.8 413.4,261.8 411.5,263 411.5,263 409.5,264.3 409.5,264.3 407.6,265.5 407.6,265.5 405.7,266.7 405.7,266.7 403.7,267.9 403.7,267.9 401.8,269.1 401.8,269.1 399.9,270.3 399.9,270.3 397.9,271.4 397.9,271.4 396,272.6 396,272.6 394.1,273.7 394.1,273.7 392.1,274.8 392.1,274.8 390.2,276 390.2,276 388.2,277.1 388.2,277.1 386.3,278.2 386.3,278.2 384.4,279.3 384.4,279.3 382.4,280.4 382.4,280.4 380.5,281.4 380.5,281.4 378.6,282.5 378.6,282.5 376.6,283.6 376.6,283.6 374.7,284.6 374.7,284.6 372.8,285.7 372.8,285.7 370.8,286.7 370.8,286.7 368.9,287.8 368.9,287.8 366.9,288.8 366.9,288.8 365,289.9 365,289.9 363.1,290.9 363.1,290.9 361.1,291.9 361.1,291.9 359.2,292.9 359.2,292.9 357.3,294 357.3,294 355.3,295 355.3,295 353.4,296 353.4,296 351.5,297 351.5,297 349.5,298 349.5,298 347.6,299 347.6,299 345.6,300 345.6,300 343.7,301 343.7,301 341.8,302 341.8,302 339.8,303 339.8,303 337.9,304 337.9,304 336,304.9 336,304.9 334,305.9 334,305.9 332.1,306.9 332.1,306.9 330.2,307.9 330.2,307.9 328.2,308.9 328.2,308.9 326.3,309.8 326.3,309.8 324.3,310.8 324.3,310.8 322.4,311.8 322.4,311.8 320.5,312.7 320.5,312.7 318.6,313.7 318.6,313.7 316.7,314.7 316.7,314.7 314.8,315.6 314.8,315.6 312.8,316.6 312.8,316.6 310.9,317.5 310.9,317.5 309,318.5 309,318.5 307,319.4 307,319.4 305.1,320.4 305.1,320.4 303.1,321.3 " />
<polyline fill="none" vector-effect="none" points="508.1,112.3 507,122.1 507,122.1 505,135.2 505,135.2 503.1,146.3 503.1,146.3 501.1,155.8 501.1,155.8 499.2,164 499.2,164 497.3,171.3 497.3,171.3 495.3,177.8 495.3,177.8 493.4,183.6 493.4,183.6 491.5,188.9 491.5,188.9 489.5,193.7 489.5,193.7 487.6,198.1 487.6,198.1 485.7,202.2 485.7,202.2 483.7,206 483.7,206 481.8,209.5 481.8,209.5 479.8,212.9 479.8,212.9 477.9,216 477.9,216 476,218.9 476,218.9 474,221.7 474,221.7 472.1,224.4 472.1,224.4 470.2,226.9 470.2,226.9 468.2,229.3 468.2,229.3 466.3,231.7 466.3,231.7 464.4,233.8 464.4,233.8 462.4,236 462.4,236 460.5,238 460.5,238 458.5,240.1 458.5,240.1 456.6,242 456.6,242 454.7,243.9 454.7,243.9 452.7,245.7 452.7,245.7 450.8,247.5 450.8,247.5 448.9,249.3 448.9,249.3 446.9,251 446.9,251 445,252.6 445,252.6 443.1,254.2 443.1,254.2 441.1,255.8 441.1,255.8 439.2,257.4 439.2,257.4 437.2,258.9 437.2,258.9 435.3,260.4 435.3,260.4 433.4,261.9 433.4,261.9 431.4,263.4 431.4,263.4 429.5,264.8 429.5,264.8 427.6,266.2 427.6,266.2 425.6,267.6 425.6,267.6 423.7,268.9 423.7,268.9 421.8,270.3 421.8,270.3 419.8,271.6 419.8,271.6 417.9,272.9 417.9,272.9 415.9,274.2 415.9,274.2 414,275.5 414,275.5 412.1,276.8 412.1,276.8 410.1,278.1 410.1,278.1 408.2,279.3 408.2,279.3 406.3,280.5 406.3,280.5 404.3,281.8 404.3,281.8 402.4,283 402.4,283 400.5,284.2 400.5,284.2 398.5,285.4 398.5,285.4 396.6,286.6 396.6,286.6 394.6,287.7 394.6,287.7 392.7,288.9 392.7,288.9 390.8,290.1 390.8,290.1 388.8,291.2 388.8,291.2 386.9,292.4 386.9,292.4 385,293.5 385,293.5 383,294.6 383,294.6 381.1,295.8 381.1,295.8 379.2,296.9 379.2,296.9 377.2,298 377.2,298 375.3,299.1 375.3,299.1 373.3,300.2 373.3,300.2 371.4,301.3 371.4,301.3 369.5,302.4 369.5,302.4 367.5,303.4 367.5,303.4 365.6,304.5 365.6,304.5 363.7,305.6 363.7,305.6 361.7,306.7 361.7,306.7 359.8,307.7 359.8,307.7 357.9,308.8 357.9,308.8 355.9,309.8 355.9,309.8 354,310.9 354,310.9 352.1,311.9 352.1,311.9 350.1,313 350.1,313 348.2,314 348.2,314 346.2,315.1 346.2,315.1 344.3,316.1 344.3,316.1 342.4,317.1 342.4,317.1 340.4,318.2 340.4,318.2 338.5,319.2 338.5,319.2 336.6,320.2 336.6,320.2 334.6,321.2 " />
<polyline fill="none" vector-effect="none" points="527.9,124.2 526.9,129.5 526.9,129.5 525,138.5 525,138.5 523,146.7 523,146.7 521.1,154 521.1,154 519.2,160.8 519.2,160.8 517.2,166.9 517.2,166.9 515.3,172.6 515.3,172.6 513.4,177.9 513.4,177.9 511.4,182.8 511.4,182.8 509.5,187.4 509.5,187.4 507.5,191.7 507.5,191.7 505.6,195.7 505.6,195.7 503.7,199.6 503.7,199.6 501.7,203.2 501.7,203.2 499.8,206.6 499.8,206.6 497.9,209.9 497.9,209.9 495.9,213 495.9,213 494,216 494,216 492.1,218.8 492.1,218.8 490.1,221.6 490.1,221.6 488.2,224.2 488.2,224.2 486.3,226.8 486.3,226.8 484.3,229.2 484.3,229.2 482.4,231.6 482.4,231.6 480.4,233.8 480.4,233.8 478.5,236.1 478.5,236.1 476.6,238.2 476.6,238.2 474.6,240.4 474.6,240.4 472.7,242.4 472.7,242.4 470.8,244.4 470.8,244.4 468.8,246.4 468.8,246.4 466.9,248.3 466.9,248.3 465,250.1 465,250.1 463,252 463,252 461.1,253.8 461.1,253.8 459.1,255.5 459.1,255.5 457.2,257.2 457.2,257.2 455.3,258.9 455.3,258.9 453.3,260.6 453.3,260.6 451.4,262.2 451.4,262.2 449.5,263.8 449.5,263.8 447.5,265.4 447.5,265.4 445.6,266.9 445.6,266.9 443.7,268.5 443.7,268.5 441.7,270 441.7,270 439.8,271.4 439.8,271.4 437.8,272.9 437.8,272.9 435.9,274.4 435.9,274.4 434,275.8 434,275.8 432,277.2 432,277.2 430.1,278.6 430.1,278.6 428.2,280 428.2,280 426.2,281.4 426.2,281.4 424.3,282.7 424.3,282.7 422.4,284.1 422.4,284.1 420.4,285.4 420.4,285.4 418.5,286.7 418.5,286.7 416.5,288 416.5,288 414.6,289.3 414.6,289.3 412.7,290.6 412.7,290.6 410.7,291.8 410.7,291.8 408.8,293.1 408.8,293.1 406.9,294.4 406.9,294.4 404.9,295.6 404.9,295.6 403,296.8 403,296.8 401.1,298.1 401.1,298.1 399.1,299.3 399.1,299.3 397.2,300.5 397.2,300.5 395.2,301.7 395.2,301.7 393.3,302.9 393.3,302.9 391.4,304 391.4,304 389.4,305.2 389.4,305.2 387.5,306.4 387.5,306.4 385.6,307.6 385.6,307.6 383.6,308.7 383.6,308.7 381.7,309.9 381.7,309.9 379.8,311 379.8,311 377.8,312.2 377.8,312.2 375.9,313.3 375.9,313.3 373.9,314.4 373.9,314.4 372,315.5 372,315.5 370.1,316.7 370.1,316.7 368.1,317.8 368.1,317.8 366.2,318.9 " />
<polyline fill="none" vector-effect="none" points="274.8,66.1 275.5,67.9 275.5,67.9 278.3,75.3 278.3,75.3 281.2,82.5 281.2,82.5 284.1,89.5 284.1,89.5 286.9,96.3 286.9,96.3 289.8,103 289.8,103 292.7,109.6 292.7,109.6 295.6,115.9 295.6,115.9 298.4,122.1 298.4,122.1 301.3,128.2 301.3,128.2 304.2,134.1 304.2,134.1 307,139.8 307,139.8 309.9,145.3 309.9,145.3 312.8,150.7 312.8,150.7 315.7,155.9 315.7,155.9 318.5,160.9 318.5,160.9 321.3,165.8 321.3,165.8 324.2,170.5 324.2,170.5 327,175.1 327,175.1 329.9,179.5 329.9,179.5 332.8,183.7 332.8,183.7 335.6,187.8 335.6,187.8 338.5,191.6 338.5,191.6 341.4,195.4 341.4,195.4 344.3,198.9 344.3,198.9 347.1,202.3 347.1,202.3 350,205.6 350,205.6 352.9,208.6 352.9,208.6 355.7,211.5 355.7,211.5 358.6,214.3 358.6,214.3 361.5,216.8 361.5,216.8 364.4,219.3 364.4,219.3 367.2,221.5 367.2,221.5 370.1,223.6 370.1,223.6 373,225.5 373,225.5 375.8,227.2 375.8,227.2 378.7,228.8 378.7,228.8 381.6,230.2 381.6,230.2 384.4,231.5 384.4,231.5 387.3,232.5 387.3,232.5 390.2,233.4 390.2,233.4 393.1,234.2 393.1,234.2 395.9,234.8 395.9,234.8 398.8,235.2 398.8,235.2 401.7,235.4 401.7,235.4 404.5,235.5 404.5,235.5 407.4,235.5 407.4,235.5 410.3,235.3 410.3,235.3 413.2,234.9 413.2,234.9 416,234.3 416,234.3 418.9,233.6 418.9,233.6 421.8,232.7 421.8,232.7 424.6,231.7 424.6,231.7 427.5,230.5 427.5,230.5 430.4,229.1 430.4,229.1 433.3,227.6 433.3,227.6 436.1,225.9 436.1,225.9 439,224 439,224 441.9,221.9 441.9,221.9 444.7,219.7 444.7,219.7 447.6,217.3 447.6,217.3 450.5,214.8 450.5,214.8 453.3,212.1 453.3,212.1 456.2,209.2 456.2,209.2 459.1,206.2 459.1,206.2 462,203 462,203 464.8,199.6 464.8,199.6 467.7,196.1 467.7,196.1 470.6,192.4 470.6,192.4 473.4,188.5 473.4,188.5 476.3,184.5 476.3,184.5 479.2,180.3 479.2,180.3 482.1,176 482.1,176 484.9,171.5 484.9,171.5 487.8,166.8 487.8,166.8 490.7,161.9 490.7,161.9 493.5,156.9 493.5,156.9 496.4,151.7 496.4,151.7 499.3,146.4 499.3,146.4 502.1,140.9 502.1,140.9 505,135.2 505,135.2 507.9,129.4 507.9,129.4 510.8,123.4 510.8,123.4 513.6,117.2 513.6,117.2 514.3,115.7 " />
<polyline fill="none" vector-effect="none" points="231.2,113.8 234.1,118.5 234.1,118.5 236.9,123 236.9,123 239.8,127.5 239.8,127.5 242.7,131.9 242.7,131.9 245.6,136.2 245.6,136.2 248.4,140.4 248.4,140.4 251.3,144.6 251.3,144.6 254.2,148.6 254.2,148.6 257,152.6 257,152.6 259.9,156.5 259.9,156.5 262.8,160.3 262.8,160.3 265.6,164 265.6,164 268.5,167.7 268.5,167.7 271.4,171.2 271.4,171.2 274.3,174.7 274.3,174.7 277.1,178.1 277.1,178.1 280,181.4 280,181.4 282.9,184.6 282.9,184.6 285.7,187.8 285.7,187.8 288.6,190.9 288.6,190.9 291.5,193.9 291.5,193.9 294.4,196.8 294.4,196.8 297.2,199.6 297.2,199.6 300.1,202.3 300.1,202.3 303,205 303,205 305.8,207.5 305.8,207.5 308.7,210 308.7,210 311.6,212.4 311.6,212.4 314.4,214.8 314.4,214.8 317.3,217 317.3,217 320.1,219.2 320.1,219.2 323,221.2 323,221.2 325.8,223.2 325.8,223.2 328.7,225.2 328.7,225.2 331.6,227 331.6,227 334.4,228.7 334.4,228.7 337.3,230.4 337.3,230.4 340.2,232 340.2,232 343.1,233.4 343.1,233.4 345.9,234.8 345.9,234.8 348.8,236.1 348.8,236.1 351.7,237.4 351.7,237.4 354.5,238.6 354.5,238.6 357.4,239.7 357.4,239.7 360.3,240.7 360.3,240.7 363.2,241.6 363.2,241.6 366,242.4 366,242.4 368.9,243.2 368.9,243.2 371.8,243.9 371.8,243.9 374.6,244.5 374.6,244.5 377.5,245 377.5,245 380.4,245.4 380.4,245.4 383.2,245.7 383.2,245.7 386.1,246 386.1,246 389,246.2 389,246.2 391.9,246.3 391.9,246.3 394.7,246.3 394.7,246.3 397.6,246.2 397.6,246.2 400.5,246.1 400.5,246.1 403.3,245.9 403.3,245.9 406.2,245.5 406.2,245.5 409.1,245.1 409.1,245.1 412,244.7 412,244.7 414.8,244.1 414.8,244.1 417.7,243.5 417.7,243.5 420.6,242.7 420.6,242.7 423.4,241.9 423.4,241.9 426.3,241 426.3,241 429.2,240.1 429.2,240.1 432,239 432,239 434.9,237.9 434.9,237.9 437.8,236.6 437.8,236.6 440.7,235.3 440.7,235.3 443.5,234 443.5,234 446.4,232.5 446.4,232.5 449.3,231 449.3,231 452.1,229.4 452.1,229.4 455,227.7 455,227.7 457.9,225.9 457.9,225.9 460.8,224 460.8,224 463.6,222.1 463.6,222.1 466.5,220 466.5,220 469.4,217.9 469.4,217.9 472.2,215.7 472.2,215.7 475.1,213.4 475.1,213.4 478,211 478,211 480.8,208.5 480.8,208.5 483.7,206 483.7,206 486.6,203.4 486.6,203.4 489.5,200.7 489.5,200.7 492.3,197.9 492.3,197.9 495.2,195 495.2,195 498.1,192.1 498.1,192.1 500.9,189 500.9,189 503.8,185.9 503.8,185.9 506.7,182.7 506.7,182.7 509.6,179.4 509.6,179.4 512.4,176.1 512.4,176.1 515.3,172.6 " />
<polyline fill="none" vector-effect="none" points="209.9,157.2 212.8,160.5 212.8,160.5 215.6,163.7 215.6,163.7 218.5,166.9 218.5,166.9 221.4,170 221.4,170 224.3,173.1 224.3,173.1 227.1,176.1 227.1,176.1 230,179.1 230,179.1 232.9,182 232.9,182 235.7,184.8 235.7,184.8 238.6,187.6 238.6,187.6 241.5,190.3 241.5,190.3 244.3,193 244.3,193 247.2,195.7 247.2,195.7 250.1,198.2 250.1,198.2 253,200.7 253,200.7 255.8,203.2 255.8,203.2 258.7,205.6 258.7,205.6 261.6,208 261.6,208 264.4,210.3 264.4,210.3 267.3,212.5 267.3,212.5 270.2,214.7 270.2,214.7 273.1,216.8 273.1,216.8 275.9,218.9 275.9,218.9 278.8,220.9 278.8,220.9 281.7,222.9 281.7,222.9 284.5,224.8 284.5,224.8 287.4,226.7 287.4,226.7 290.3,228.5 290.3,228.5 293.2,230.2 293.2,230.2 296,231.9 296,231.9 298.9,233.5 298.9,233.5 301.8,235 301.8,235 304.6,236.6 304.6,236.6 307.5,238 307.5,238 310.4,239.5 310.4,239.5 313.2,240.8 313.2,240.8 316.1,242.1 316.1,242.1 319,243.4 319,243.4 321.8,244.6 321.8,244.6 324.6,245.7 324.6,245.7 327.5,246.8 327.5,246.8 330.4,247.8 330.4,247.8 333.2,248.8 333.2,248.8 336.1,249.7 336.1,249.7 339,250.6 339,250.6 341.9,251.4 341.9,251.4 344.7,252.2 344.7,252.2 347.6,252.9 347.6,252.9 350.5,253.5 350.5,253.5 353.3,254.1 353.3,254.1 356.2,254.7 356.2,254.7 359.1,255.2 359.1,255.2 361.9,255.6 361.9,255.6 364.8,256 364.8,256 367.7,256.3 367.7,256.3 370.6,256.5 370.6,256.5 373.4,256.8 373.4,256.8 376.3,256.9 376.3,256.9 379.2,257 379.2,257 382,257.1 382,257.1 384.9,257 384.9,257 387.8,257 387.8,257 390.7,256.9 390.7,256.9 393.5,256.7 393.5,256.7 396.4,256.4 396.4,256.4 399.3,256.2 399.3,256.2 402.1,255.8 402.1,255.8 405,255.4 405,255.4 407.9,255 407.9,255 410.7,254.5 410.7,254.5 413.6,253.9 413.6,253.9 416.5,253.3 416.5,253.3 419.4,252.6 419.4,252.6 422.2,251.9 422.2,251.9 425.1,251.1 425.1,251.1 428,250.3 428,250.3 430.8,249.4 430.8,249.4 433.7,248.4 433.7,248.4 436.6,247.4 436.6,247.4 439.5,246.4 439.5,246.4 442.3,245.3 442.3,245.3 445.2,244.1 445.2,244.1 448.1,242.9 448.1,242.9 450.9,241.6 450.9,241.6 453.8,240.3 453.8,240.3 456.7,238.9 456.7,238.9 459.5,237.5 459.5,237.5 462.4,236 462.4,236 465.3,234.4 465.3,234.4 468.2,232.8 468.2,232.8 471,231.2 471,231.2 473.9,229.5 473.9,229.5 476.8,227.8 476.8,227.8 479.6,225.9 479.6,225.9 482.5,224.1 482.5,224.1 485.4,222.1 485.4,222.1 488.3,220.1 488.3,220.1 491.1,218.1 491.1,218.1 494,216 " />
<polyline fill="none" vector-effect="none" points="188.6,183.7 191.5,186.3 191.5,186.3 194.3,188.9 194.3,188.9 197.2,191.4 197.2,191.4 200.1,193.9 200.1,193.9 203,196.4 203,196.4 205.8,198.8 205.8,198.8 208.7,201.2 208.7,201.2 211.6,203.5 211.6,203.5 214.4,205.8 214.4,205.8 217.3,208 217.3,208 220.2,210.2 220.2,210.2 223.1,212.4 223.1,212.4 225.9,214.5 225.9,214.5 228.8,216.6 228.8,216.6 231.7,218.6 231.7,218.6 234.5,220.6 234.5,220.6 237.4,222.6 237.4,222.6 240.3,224.5 240.3,224.5 243.1,226.3 243.1,226.3 246,228.2 246,228.2 248.9,230 248.9,230 251.8,231.7 251.8,231.7 254.6,233.3 254.6,233.3 257.5,235 257.5,235 260.4,236.6 260.4,236.6 263.2,238.2 263.2,238.2 266.1,239.7 266.1,239.7 269,241.2 269,241.2 271.9,242.7 271.9,242.7 274.7,244.1 274.7,244.1 277.6,245.5 277.6,245.5 280.5,246.8 280.5,246.8 283.3,248.1 283.3,248.1 286.2,249.4 286.2,249.4 289.1,250.6 289.1,250.6 291.9,251.8 291.9,251.8 294.8,252.9 294.8,252.9 297.7,254 297.7,254 300.6,255 300.6,255 303.4,256 303.4,256 306.3,257 306.3,257 309.2,257.9 309.2,257.9 312,258.8 312,258.8 314.9,259.6 314.9,259.6 317.8,260.4 317.8,260.4 320.6,261.2 320.6,261.2 323.4,261.9 323.4,261.9 326.3,262.6 326.3,262.6 329.2,263.2 329.2,263.2 332,263.8 332,263.8 334.9,264.4 334.9,264.4 337.8,264.9 337.8,264.9 340.6,265.4 340.6,265.4 343.5,265.8 343.5,265.8 346.4,266.2 346.4,266.2 349.3,266.5 349.3,266.5 352.1,266.8 352.1,266.8 355,267.1 355,267.1 357.9,267.3 357.9,267.3 360.7,267.5 360.7,267.5 363.6,267.6 363.6,267.6 366.5,267.7 366.5,267.7 369.4,267.8 369.4,267.8 372.2,267.8 372.2,267.8 375.1,267.8 375.1,267.8 378,267.7 378,267.7 380.8,267.6 380.8,267.6 383.7,267.5 383.7,267.5 386.6,267.3 386.6,267.3 389.4,267 389.4,267 392.3,266.8 392.3,266.8 395.2,266.5 395.2,266.5 398.1,266.1 398.1,266.1 400.9,265.7 400.9,265.7 403.8,265.3 403.8,265.3 406.7,264.8 406.7,264.8 409.5,264.3 409.5,264.3 412.4,263.7 412.4,263.7 415.3,263.1 415.3,263.1 418.2,262.5 418.2,262.5 421,261.8 421,261.8 423.9,261.1 423.9,261.1 426.8,260.3 426.8,260.3 429.6,259.5 429.6,259.5 432.5,258.6 432.5,258.6 435.4,257.7 435.4,257.7 438.2,256.8 438.2,256.8 441.1,255.8 441.1,255.8 444,254.8 444,254.8 446.9,253.8 446.9,253.8 449.7,252.7 449.7,252.7 452.6,251.5 452.6,251.5 455.5,250.3 455.5,250.3 458.3,249.1 458.3,249.1 461.2,247.9 461.2,247.9 464.1,246.6 464.1,246.6 467,245.2 467,245.2 469.8,243.8 469.8,243.8 472.7,242.4 " />
<polyline fill="none" vector-effect="none" points="167.3,203.5 170.2,205.7 170.2,205.7 173,207.9 173,207.9 175.9,210 175.9,210 178.8,212.2 178.8,212.2 181.7,214.2 181.7,214.2 184.5,216.3 184.5,216.3 187.4,218.3 187.4,218.3 190.3,220.3 190.3,220.3 193.1,222.2 193.1,222.2 196,224.1 196,224.1 198.9,226 198.9,226 201.8,227.9 201.8,227.9 204.6,229.7 204.6,229.7 207.5,231.4 207.5,231.4 210.4,233.1 210.4,233.1 213.2,234.8 213.2,234.8 216.1,236.5 216.1,236.5 219,238.1 219,238.1 221.8,239.8 221.8,239.8 224.7,241.3 224.7,241.3 227.6,242.9 227.6,242.9 230.5,244.4 230.5,244.4 233.3,245.9 233.3,245.9 236.2,247.3 236.2,247.3 239.1,248.8 239.1,248.8 241.9,250.2 241.9,250.2 244.8,251.5 244.8,251.5 247.7,252.8 247.7,252.8 250.6,254.1 250.6,254.1 253.4,255.4 253.4,255.4 256.3,256.6 256.3,256.6 259.2,257.8 259.2,257.8 262,258.9 262,258.9 264.9,260 264.9,260 267.8,261.1 267.8,261.1 270.6,262.2 270.6,262.2 273.5,263.2 273.5,263.2 276.4,264.2 276.4,264.2 279.3,265.2 279.3,265.2 282.1,266.1 282.1,266.1 285,267 285,267 287.9,267.8 287.9,267.8 290.7,268.7 290.7,268.7 293.6,269.4 293.6,269.4 296.5,270.2 296.5,270.2 299.4,270.9 299.4,270.9 302.2,271.6 302.2,271.6 305.1,272.3 305.1,272.3 308,272.9 308,272.9 310.8,273.5 310.8,273.5 313.7,274.1 313.7,274.1 316.6,274.6 316.6,274.6 319.4,275.1 319.4,275.1 322.2,275.6 322.2,275.6 325.1,276 325.1,276 328,276.4 328,276.4 330.8,276.7 330.8,276.7 333.7,277.1 333.7,277.1 336.6,277.4 336.6,277.4 339.4,277.6 339.4,277.6 342.3,277.9 342.3,277.9 345.2,278.1 345.2,278.1 348.1,278.2 348.1,278.2 350.9,278.4 350.9,278.4 353.8,278.5 353.8,278.5 356.7,278.5 356.7,278.5 359.5,278.6 359.5,278.6 362.4,278.6 362.4,278.6 365.3,278.5 365.3,278.5 368.1,278.5 368.1,278.5 371,278.4 371,278.4 373.9,278.2 373.9,278.2 376.8,278.1 376.8,278.1 379.6,277.9 379.6,277.9 382.5,277.6 382.5,277.6 385.4,277.4 385.4,277.4 388.2,277.1 388.2,277.1 391.1,276.7 391.1,276.7 394,276.4 394,276.4 396.9,276 396.9,276 399.7,275.6 399.7,275.6 402.6,275.1 402.6,275.1 405.5,274.6 405.5,274.6 408.3,274.1 408.3,274.1 411.2,273.5 411.2,273.5 414.1,272.9 414.1,272.9 416.9,272.3 416.9,272.3 419.8,271.6 419.8,271.6 422.7,270.9 422.7,270.9 425.6,270.2 425.6,270.2 428.4,269.4 428.4,269.4 431.3,268.7 431.3,268.7 434.2,267.8 434.2,267.8 437,267 437,267 439.9,266.1 439.9,266.1 442.8,265.2 442.8,265.2 445.7,264.2 445.7,264.2 448.5,263.2 448.5,263.2 451.4,262.2 " />
<polyline fill="none" vector-effect="none" points="146,219.9 148.9,221.9 148.9,221.9 151.7,223.8 151.7,223.8 154.6,225.7 154.6,225.7 157.5,227.5 157.5,227.5 160.4,229.4 160.4,229.4 163.2,231.2 163.2,231.2 166.1,232.8 166.1,232.8 169,234.6 169,234.6 171.8,236.3 171.8,236.3 174.7,238 174.7,238 177.6,239.7 177.6,239.7 180.5,241.3 180.5,241.3 183.3,242.9 183.3,242.9 186.2,244.5 186.2,244.5 189.1,246.1 189.1,246.1 191.9,247.6 191.9,247.6 194.8,249.1 194.8,249.1 197.7,250.6 197.7,250.6 200.5,252 200.5,252 203.4,253.4 203.4,253.4 206.3,254.8 206.3,254.8 209.2,256.2 209.2,256.2 212,257.5 212,257.5 214.9,258.8 214.9,258.8 217.8,260.1 217.8,260.1 220.6,261.4 220.6,261.4 223.5,262.6 223.5,262.6 226.4,263.8 226.4,263.8 229.3,264.9 229.3,264.9 232.1,266.1 232.1,266.1 235,267.2 235,267.2 237.9,268.3 237.9,268.3 240.7,269.4 240.7,269.4 243.6,270.4 243.6,270.4 246.5,271.4 246.5,271.4 249.3,272.4 249.3,272.4 252.2,273.3 252.2,273.3 255.1,274.3 255.1,274.3 258,275.1 258,275.1 260.8,276 260.8,276 263.7,276.9 263.7,276.9 266.6,277.7 266.6,277.7 269.4,278.5 269.4,278.5 272.3,279.2 272.3,279.2 275.2,279.9 275.2,279.9 278.1,280.7 278.1,280.7 280.9,281.3 280.9,281.3 283.8,282 283.8,282 286.7,282.6 286.7,282.6 289.5,283.2 289.5,283.2 292.4,283.8 292.4,283.8 295.3,284.3 295.3,284.3 298.1,284.8 298.1,284.8 301,285.3 301,285.3 303.9,285.7 303.9,285.7 306.8,286.2 306.8,286.2 309.6,286.6 309.6,286.6 312.5,287 312.5,287 315.4,287.3 315.4,287.3 318.2,287.6 318.2,287.6 321,287.9 321,287.9 323.9,288.2 323.9,288.2 326.8,288.4 326.8,288.4 329.6,288.6 329.6,288.6 332.5,288.8 332.5,288.8 335.4,289 335.4,289 338.2,289.1 338.2,289.1 341.1,289.2 341.1,289.2 344,289.2 344,289.2 346.8,289.3 346.8,289.3 349.7,289.3 349.7,289.3 352.6,289.3 352.6,289.3 355.5,289.3 355.5,289.3 358.3,289.2 358.3,289.2 361.2,289.1 361.2,289.1 364.1,289 364.1,289 366.9,288.8 366.9,288.8 369.8,288.7 369.8,288.7 372.7,288.5 372.7,288.5 375.6,288.2 375.6,288.2 378.4,288 378.4,288 381.3,287.7 381.3,287.7 384.2,287.4 384.2,287.4 387,287 387,287 389.9,286.7 389.9,286.7 392.8,286.3 392.8,286.3 395.7,285.8 395.7,285.8 398.5,285.4 398.5,285.4 401.4,284.9 401.4,284.9 404.3,284.4 404.3,284.4 407.1,283.9 407.1,283.9 410,283.3 410,283.3 412.9,282.7 412.9,282.7 415.7,282.1 415.7,282.1 418.6,281.5 418.6,281.5 421.5,280.8 421.5,280.8 424.4,280.1 424.4,280.1 427.2,279.4 427.2,279.4 430.1,278.6 " />
<polyline fill="none" vector-effect="none" points="124.7,234.3 127.6,236.1 127.6,236.1 130.4,237.8 130.4,237.8 133.3,239.5 133.3,239.5 136.2,241.2 136.2,241.2 139.1,242.8 139.1,242.8 141.9,244.5 141.9,244.5 144.8,246.1 144.8,246.1 147.7,247.6 147.7,247.6 150.5,249.2 150.5,249.2 153.4,250.7 153.4,250.7 156.3,252.3 156.3,252.3 159.2,253.7 159.2,253.7 162,255.2 162,255.2 164.9,256.7 164.9,256.7 167.8,258.1 167.8,258.1 170.6,259.5 170.6,259.5 173.5,260.8 173.5,260.8 176.4,262.2 176.4,262.2 179.2,263.5 179.2,263.5 182.1,264.8 182.1,264.8 185,266.1 185,266.1 187.9,267.3 187.9,267.3 190.7,268.6 190.7,268.6 193.6,269.8 193.6,269.8 196.5,271 196.5,271 199.3,272.1 199.3,272.1 202.2,273.3 202.2,273.3 205.1,274.4 205.1,274.4 208,275.5 208,275.5 210.8,276.5 210.8,276.5 213.7,277.6 213.7,277.6 216.6,278.6 216.6,278.6 219.4,279.6 219.4,279.6 222.3,280.5 222.3,280.5 225.2,281.5 225.2,281.5 228,282.4 228,282.4 230.9,283.3 230.9,283.3 233.8,284.2 233.8,284.2 236.7,285 236.7,285 239.5,285.9 239.5,285.9 242.4,286.7 242.4,286.7 245.3,287.5 245.3,287.5 248.1,288.2 248.1,288.2 251,289 251,289 253.9,289.7 253.9,289.7 256.8,290.4 256.8,290.4 259.6,291 259.6,291 262.5,291.7 262.5,291.7 265.4,292.3 265.4,292.3 268.2,292.9 268.2,292.9 271.1,293.4 271.1,293.4 274,294 274,294 276.8,294.5 276.8,294.5 279.7,295 279.7,295 282.6,295.5 282.6,295.5 285.5,295.9 285.5,295.9 288.3,296.4 288.3,296.4 291.2,296.8 291.2,296.8 294.1,297.2 294.1,297.2 296.9,297.5 296.9,297.5 299.8,297.9 299.8,297.9 302.7,298.2 302.7,298.2 305.6,298.4 305.6,298.4 308.4,298.7 308.4,298.7 311.3,299 311.3,299 314.2,299.2 314.2,299.2 317,299.4 317,299.4 319.9,299.5 319.9,299.5 322.7,299.7 322.7,299.7 325.6,299.8 325.6,299.8 328.4,299.9 328.4,299.9 331.3,300 331.3,300 334.2,300 334.2,300 337,300.1 337,300.1 339.9,300.1 339.9,300.1 342.8,300 342.8,300 345.6,300 345.6,300 348.5,299.9 348.5,299.9 351.4,299.8 351.4,299.8 354.3,299.7 354.3,299.7 357.1,299.6 357.1,299.6 360,299.4 360,299.4 362.9,299.3 362.9,299.3 365.7,299 365.7,299 368.6,298.8 368.6,298.8 371.5,298.6 371.5,298.6 374.4,298.3 374.4,298.3 377.2,298 377.2,298 380.1,297.7 380.1,297.7 383,297.3 383,297.3 385.8,296.9 385.8,296.9 388.7,296.5 388.7,296.5 391.6,296.1 391.6,296.1 394.4,295.7 394.4,295.7 397.3,295.2 397.3,295.2 400.2,294.7 400.2,294.7 403.1,294.2 403.1,294.2 405.9,293.7 405.9,293.7 408.8,293.1 " />
<polyline fill="none" vector-effect="none" points="103.4,247.6 106.3,249.2 106.3,249.2 109.1,250.8 109.1,250.8 112,252.4 112,252.4 114.9,253.9 114.9,253.9 117.8,255.4 117.8,255.4 120.6,256.9 120.6,256.9 123.5,258.4 123.5,258.4 126.4,259.9 126.4,259.9 129.2,261.3 129.2,261.3 132.1,262.7 132.1,262.7 135,264.1 135,264.1 137.9,265.5 137.9,265.5 140.7,266.9 140.7,266.9 143.6,268.2 143.6,268.2 146.5,269.5 146.5,269.5 149.3,270.8 149.3,270.8 152.2,272.1 152.2,272.1 155.1,273.3 155.1,273.3 157.9,274.6 157.9,274.6 160.8,275.8 160.8,275.8 163.7,277 163.7,277 166.6,278.1 166.6,278.1 169.4,279.3 169.4,279.3 172.3,280.4 172.3,280.4 175.2,281.5 175.2,281.5 178,282.6 178,282.6 180.9,283.7 180.9,283.7 183.8,284.7 183.8,284.7 186.7,285.8 186.7,285.8 189.5,286.8 189.5,286.8 192.4,287.8 192.4,287.8 195.3,288.7 195.3,288.7 198.1,289.7 198.1,289.7 201,290.6 201,290.6 203.9,291.5 203.9,291.5 206.7,292.4 206.7,292.4 209.6,293.2 209.6,293.2 212.5,294.1 212.5,294.1 215.4,294.9 215.4,294.9 218.2,295.7 218.2,295.7 221.1,296.5 221.1,296.5 224,297.2 224,297.2 226.8,298 226.8,298 229.7,298.7 229.7,298.7 232.6,299.4 232.6,299.4 235.5,300.1 235.5,300.1 238.3,300.7 238.3,300.7 241.2,301.3 241.2,301.3 244.1,302 244.1,302 246.9,302.6 246.9,302.6 249.8,303.1 249.8,303.1 252.7,303.7 252.7,303.7 255.6,304.2 255.6,304.2 258.4,304.7 258.4,304.7 261.3,305.2 261.3,305.2 264.2,305.7 264.2,305.7 267,306.1 267,306.1 269.9,306.6 269.9,306.6 272.8,307 272.8,307 275.6,307.4 275.6,307.4 278.5,307.7 278.5,307.7 281.4,308.1 281.4,308.1 284.3,308.4 284.3,308.4 287.1,308.7 287.1,308.7 290,309 290,309 292.9,309.3 292.9,309.3 295.7,309.5 295.7,309.5 298.6,309.7 298.6,309.7 301.5,309.9 301.5,309.9 304.4,310.1 304.4,310.1 307.2,310.3 307.2,310.3 310.1,310.4 310.1,310.4 313,310.5 313,310.5 315.8,310.6 315.8,310.6 318.7,310.7 318.7,310.7 321.5,310.8 321.5,310.8 324.3,310.8 324.3,310.8 327.2,310.8 327.2,310.8 330.1,310.8 330.1,310.8 333,310.8 333,310.8 335.8,310.7 335.8,310.7 338.7,310.7 338.7,310.7 341.6,310.6 341.6,310.6 344.4,310.5 344.4,310.5 347.3,310.4 347.3,310.4 350.2,310.2 350.2,310.2 353.1,310 353.1,310 355.9,309.8 355.9,309.8 358.8,309.6 358.8,309.6 361.7,309.4 361.7,309.4 364.5,309.2 364.5,309.2 367.4,308.9 367.4,308.9 370.3,308.6 370.3,308.6 373.1,308.3 373.1,308.3 376,307.9 376,307.9 378.9,307.6 378.9,307.6 381.8,307.2 381.8,307.2 384.6,306.8 384.6,306.8 387.5,306.4 " />
<polyline fill="none" vector-effect="none" points="82.1,260.1 85,261.6 85,261.6 87.8,263.1 87.8,263.1 90.7,264.5 90.7,264.5 93.6,266 93.6,266 96.5,267.4 96.5,267.4 99.3,268.8 99.3,268.8 102.2,270.2 102.2,270.2 105.1,271.5 105.1,271.5 107.9,272.9 107.9,272.9 110.8,274.2 110.8,274.2 113.7,275.5 113.7,275.5 116.6,276.8 116.6,276.8 119.4,278.1 119.4,278.1 122.3,279.3 122.3,279.3 125.2,280.6 125.2,280.6 128,281.8 128,281.8 130.9,283 130.9,283 133.8,284.2 133.8,284.2 136.6,285.3 136.6,285.3 139.5,286.5 139.5,286.5 142.4,287.6 142.4,287.6 145.3,288.7 145.3,288.7 148.1,289.8 148.1,289.8 151,290.8 151,290.8 153.9,291.9 153.9,291.9 156.7,292.9 156.7,292.9 159.6,293.9 159.6,293.9 162.5,294.9 162.5,294.9 165.4,295.9 165.4,295.9 168.2,296.9 168.2,296.9 171.1,297.8 171.1,297.8 174,298.7 174,298.7 176.8,299.7 176.8,299.7 179.7,300.5 179.7,300.5 182.6,301.4 182.6,301.4 185.5,302.3 185.5,302.3 188.3,303.1 188.3,303.1 191.2,303.9 191.2,303.9 194.1,304.7 194.1,304.7 196.9,305.5 196.9,305.5 199.8,306.2 199.8,306.2 202.7,307 202.7,307 205.5,307.7 205.5,307.7 208.4,308.4 208.4,308.4 211.3,309.1 211.3,309.1 214.2,309.8 214.2,309.8 217,310.4 217,310.4 219.9,311 219.9,311 222.8,311.6 222.8,311.6 225.6,312.2 225.6,312.2 228.5,312.8 228.5,312.8 231.4,313.4 231.4,313.4 234.3,313.9 234.3,313.9 237.1,314.4 237.1,314.4 240,314.9 240,314.9 242.9,315.4 242.9,315.4 245.7,315.9 245.7,315.9 248.6,316.3 248.6,316.3 251.5,316.8 251.5,316.8 254.3,317.2 254.3,317.2 257.2,317.6 257.2,317.6 260.1,317.9 260.1,317.9 263,318.3 263,318.3 265.8,318.6 265.8,318.6 268.7,318.9 268.7,318.9 271.6,319.2 271.6,319.2 274.4,319.5 274.4,319.5 277.3,319.8 277.3,319.8 280.2,320 280.2,320 283.1,320.3 283.1,320.3 285.9,320.5 285.9,320.5 288.8,320.7 288.8,320.7 291.7,320.8 291.7,320.8 294.5,321 294.5,321 297.4,321.1 297.4,321.1 300.3,321.2 300.3,321.2 303.1,321.3 303.1,321.3 306,321.4 306,321.4 308.9,321.5 308.9,321.5 311.8,321.5 311.8,321.5 314.6,321.6 314.6,321.6 317.5,321.6 317.5,321.6 320.3,321.6 320.3,321.6 323.1,321.5 323.1,321.5 326,321.5 326,321.5 328.9,321.4 328.9,321.4 331.8,321.3 331.8,321.3 334.6,321.2 334.6,321.2 337.5,321.1 337.5,321.1 340.4,321 340.4,321 343.2,320.8 343.2,320.8 346.1,320.6 346.1,320.6 349,320.4 349,320.4 351.8,320.2 351.8,320.2 354.7,320 354.7,320 357.6,319.7 357.6,319.7 360.5,319.5 360.5,319.5 363.3,319.2 363.3,319.2 366.2,318.9 " />
</g>

<g fill="none" stroke="#000000" stroke-opacity="1" stroke-width="1" stroke-linecap="square" stroke-linejoin="bevel" transform="matrix(1.00313,0,0,1.00313,0,0)"
font-family="Sans" font-size="10" font-weight="400" font-style="normal" 
>
</g>

<g fill="none" stroke="#000000" stroke-opacity="1" stroke-width="1" stroke-linecap="square" stroke-linejoin="bevel" transform="matrix(1.00313,0,0,1.00313,0,0)"
font-family="Sans" font-size="10" font-weight="400" font-style="normal" 
>
</g>

<g fill="none" stroke="#000000" stroke-opacity="1" stroke-width="1" stroke-linecap="round" stroke-linejoin="round" transform="matrix(1.00313,0,0,1.00313,0,0)"
font-family="Sans" font-size="10" font-weight="400" font-style="normal" 
>
<polyline fill="none" vector-effect="none" points="557.9,326 366.2,413.2 " />
<polyline fill="none" vector-effect="none" points="82.1,354.4 366.2,413.2 " />
<polyline fill="none" vector-effect="none" points="366.5,413.5 366.5,413.5 366.5,318.5 " />
</g>

<g fill="none" stroke="#000000" stroke-opacity="1" stroke-width="1" stroke-linecap="square" stroke-linejoin="bevel" transform="matrix(1.00313,0,0,1.00313,0,0)"
font-family="Sans" font-size="10" font-weight="400" font-style="normal" 
>
</g>

<g fill="none" stroke="#000000" stroke-opacity="1" stroke-width="1" stroke-linecap="square" stroke-linejoin="bevel" transform="matrix(1,0,0,1,0,0)"
font-family="Sans" font-size="10" font-weight="400" font-style="normal" 
>
</g>
</g>
</svg>
